<svg width="128" height="128" viewBox="0 0 128 128" fill="none" xmlns="http://www.w3.org/2000/svg">
<path d="M107.804 24.0866C109.222 22.4875 109.012 20.0275 107.611 18.4991C103.944 14.5013 94.7869 9.23693 89.7281 7.13307C46.3137 -10.9219 -1.89982 20.8152 1.8022 68.5153C3.5199 90.6365 17.6343 110.991 37.7229 120.246C40.4811 111.932 45.3298 104.01 52.623 98.9717C59.5929 94.1578 68.0422 92.1648 74.4977 86.6316C74.5661 86.3226 72.4497 85.1079 72.0556 84.8178C68.3631 82.1031 65.5647 79.2563 62.8041 75.5981C60.7537 72.881 59.5174 70.105 56.3746 68.3455C47.2198 63.2226 40.4339 73.5579 36.286 80.2469C32.3197 86.6481 29.0353 93.4738 25.581 100.158C25.4229 100.271 24.2975 99.0637 24.1252 98.875C17.0657 91.153 11.1764 77.1052 10.6904 66.6473C8.71783 24.0913 54.3407 -2.61732 91.2146 17.7892C94.7821 19.7633 97.6678 22.4615 100.966 24.4569C102.962 25.6645 106.105 26.0018 107.804 24.0866ZM77.6924 54.4534C77.6924 47.479 72.0368 41.8255 65.0598 41.8255C58.0828 41.8255 52.4272 47.479 52.4272 54.4534C52.4272 61.4277 58.0828 67.0813 65.0598 67.0813C72.0368 67.0813 77.6924 61.4277 77.6924 54.4534ZM124.917 50.4461C124.25 47.446 123.358 44.3115 121.977 41.5873L91.5284 41.5897C91.0424 41.5897 91.6016 42.8539 91.703 43.1251C93.5906 48.1277 99.4704 50.8141 104.531 51.1632C106.24 51.2811 114.986 50.7999 115.748 51.7882C117.605 58.121 117.223 65.7722 115.826 72.2041C111.926 90.1624 96.4314 101.915 78.9548 105.201C82.199 101.422 85.5094 97.7759 88.3313 93.6271C90.3581 90.6482 94.322 84.4287 93.0173 80.7988C92.2669 78.7138 89.9122 78.1831 88.0104 79.1124C86.1087 80.0417 82.6969 84.7966 80.9273 86.5726C74.8115 92.7097 68.9435 94.8465 61.4427 98.5566C51.901 103.276 46.5827 108.75 42.607 118.715C42.4182 119.187 41.3164 121.949 41.4886 122.128C43.8646 122.558 46.0872 123.56 48.4302 124.168C92.8592 135.723 134.91 95.2923 124.917 50.4461Z" fill="url(#paint0_linear_1_500)"/>
<defs>
<linearGradient id="paint0_linear_1_500" x1="1.60164" y1="64.0835" x2="126.404" y2="64.0835" gradientUnits="userSpaceOnUse">
<stop stop-color="#A2C01F"/>
<stop offset="0.08" stop-color="#87B524"/>
<stop offset="0.22" stop-color="#5EA52B"/>
<stop offset="0.37" stop-color="#3C9832"/>
<stop offset="0.52" stop-color="#218E37"/>
<stop offset="0.67" stop-color="#0E863B"/>
<stop offset="0.83" stop-color="#03823D"/>
<stop offset="1" stop-color="#00813E"/>
</linearGradient>
</defs>
</svg>
