<svg width="128" height="128" viewBox="0 0 128 128" fill="none" xmlns="http://www.w3.org/2000/svg">
<path d="M107.804 24.0866C109.222 22.4875 109.012 20.0275 107.61 18.4991C103.944 14.5013 94.7864 9.23693 89.7276 7.13307C46.3133 -10.9219 -1.90031 20.8152 1.80171 68.5153C3.51941 90.6365 17.6338 110.991 37.7224 120.246C40.4806 111.932 45.3294 104.01 52.6225 98.9717C59.5924 94.1578 68.0417 92.1648 74.4972 86.6316C74.5656 86.3226 72.4492 85.1079 72.0552 84.8178C68.3626 82.1031 65.5642 79.2563 62.8036 75.5981C60.7533 72.881 59.5169 70.105 56.3741 68.3455C47.2193 63.2226 40.4334 73.5579 36.2855 80.2469C32.3192 86.6481 29.0348 93.4738 25.5805 100.158C25.4224 100.271 24.297 99.0637 24.1247 98.875C17.0652 91.153 11.1759 77.1052 10.6899 66.6473C8.71734 24.0913 54.3402 -2.61732 91.2141 17.7892C94.7816 19.7633 97.6673 22.4615 100.966 24.4569C102.962 25.6645 106.105 26.0018 107.804 24.0866ZM77.6919 54.4534C77.6919 47.479 72.0363 41.8255 65.0593 41.8255C58.0823 41.8255 52.4267 47.479 52.4267 54.4534C52.4267 61.4277 58.0823 67.0813 65.0593 67.0813C72.0363 67.0813 77.6919 61.4277 77.6919 54.4534ZM124.917 50.4461C124.249 47.446 123.357 44.3115 121.977 41.5873L91.5279 41.5897C91.0419 41.5897 91.6011 42.8539 91.7025 43.1251C93.5901 48.1277 99.4699 50.8141 104.531 51.1632C106.239 51.2811 114.986 50.7999 115.748 51.7882C117.605 58.121 117.223 65.7722 115.826 72.2041C111.926 90.1624 96.4309 101.915 78.9543 105.201C82.1986 101.422 85.5089 97.7759 88.3308 93.6271C90.3576 90.6482 94.3215 84.4287 93.0168 80.7988C92.2664 78.7138 89.9117 78.1831 88.0099 79.1124C86.1082 80.0417 82.6964 84.7966 80.9268 86.5726C74.811 92.7097 68.943 94.8465 61.4422 98.5566C51.9005 103.276 46.5822 108.75 42.6065 118.715C42.4178 119.187 41.3159 121.949 41.4881 122.128C43.8641 122.558 46.0867 123.56 48.4297 124.168C92.8587 135.723 134.909 95.2923 124.917 50.4461Z" fill="url(#paint0_linear_1_134)"/>
<defs>
<linearGradient id="paint0_linear_1_134" x1="1.60116" y1="64.0835" x2="126.403" y2="64.0835" gradientUnits="userSpaceOnUse">
<stop stop-color="#A2C01F"/>
<stop offset="0.08" stop-color="#87B524"/>
<stop offset="0.22" stop-color="#5EA52B"/>
<stop offset="0.37" stop-color="#3C9832"/>
<stop offset="0.52" stop-color="#218E37"/>
<stop offset="0.67" stop-color="#0E863B"/>
<stop offset="0.83" stop-color="#03823D"/>
<stop offset="1" stop-color="#00813E"/>
</linearGradient>
</defs>
</svg>
