<svg width="517" height="128" viewBox="0 0 517 128" fill="none" xmlns="http://www.w3.org/2000/svg">
<rect width="517" height="128" fill="white"/>
<path d="M171.233 27.728C171.233 27.4969 171.347 27.3813 171.576 27.3813H173.324C173.552 27.3813 173.666 27.4969 173.666 27.728V51.3001C173.666 51.5312 173.552 51.6468 173.324 51.6468H171.576C171.347 51.6468 171.233 51.5312 171.233 51.3001V40.6926C171.233 40.6002 171.187 40.554 171.096 40.554H162.595C162.504 40.554 162.458 40.6002 162.458 40.6926V51.3001C162.458 51.5312 162.344 51.6468 162.115 51.6468H160.367C160.139 51.6468 160.024 51.5312 160.024 51.3001V27.728C160.024 27.4969 160.139 27.3813 160.367 27.3813H162.115C162.344 27.3813 162.458 27.4969 162.458 27.728V38.2661C162.458 38.3585 162.504 38.4048 162.595 38.4048H171.096C171.187 38.4048 171.233 38.3585 171.233 38.2661V27.728Z" fill="black"/>
<path d="M184.103 33.829C185.931 33.829 187.359 34.3605 188.387 35.4236C189.438 36.4866 189.964 37.8963 189.964 39.6527V51.3001C189.964 51.5312 189.85 51.6468 189.621 51.6468H187.873C187.644 51.6468 187.53 51.5312 187.53 51.3001V50.0522C187.53 50.0059 187.507 49.9713 187.462 49.9482C187.439 49.9251 187.405 49.9366 187.359 49.9828C186.856 50.6299 186.216 51.1152 185.439 51.4388C184.662 51.7623 183.794 51.9241 182.834 51.9241C181.395 51.9241 180.161 51.5312 179.133 50.7455C178.127 49.9597 177.624 48.6771 177.624 46.8977C177.624 45.0489 178.207 43.6507 179.373 42.7032C180.561 41.7326 182.172 41.2473 184.205 41.2473H187.393C187.485 41.2473 187.53 41.2011 187.53 41.1086V39.7914C187.53 38.6127 187.233 37.6883 186.639 37.0182C186.068 36.3249 185.211 35.9782 184.068 35.9782C183.177 35.9782 182.435 36.2093 181.84 36.6715C181.246 37.1106 180.892 37.6999 180.778 38.4394C180.755 38.6474 180.629 38.7514 180.401 38.7514L178.516 38.6474C178.401 38.6474 178.31 38.6127 178.241 38.5434C178.196 38.4741 178.184 38.3932 178.207 38.3008C178.367 36.9604 178.984 35.8858 180.058 35.0769C181.155 34.245 182.503 33.829 184.103 33.829ZM183.314 49.7748C184.457 49.7748 185.439 49.4629 186.262 48.8389C187.107 48.1918 187.53 47.3021 187.53 46.1697V43.3618C187.53 43.2694 187.485 43.2232 187.393 43.2232H184.377C183.074 43.2232 182.035 43.5352 181.258 44.1591C180.481 44.76 180.092 45.6266 180.092 46.759C180.092 47.7758 180.389 48.5385 180.983 49.0469C181.578 49.5322 182.355 49.7748 183.314 49.7748Z" fill="black"/>
<path d="M203.26 34.453C203.26 34.2219 203.374 34.1063 203.603 34.1063H205.351C205.579 34.1063 205.694 34.2219 205.694 34.453V51.3001C205.694 51.5312 205.579 51.6468 205.351 51.6468H203.603C203.374 51.6468 203.26 51.5312 203.26 51.3001V49.9482C203.26 49.8788 203.237 49.8442 203.191 49.8442C203.169 49.8442 203.134 49.8673 203.089 49.9135C202.289 51.2308 200.963 51.8894 199.113 51.8894C197.559 51.8894 196.291 51.4272 195.308 50.5028C194.325 49.5784 193.834 48.238 193.834 46.4817V34.453C193.834 34.2219 193.948 34.1063 194.177 34.1063H195.925C196.153 34.1063 196.268 34.2219 196.268 34.453V45.8577C196.268 47.0825 196.565 48.0416 197.159 48.7349C197.753 49.4051 198.587 49.7402 199.661 49.7402C200.781 49.7402 201.66 49.382 202.3 48.6656C202.94 47.9261 203.26 46.9439 203.26 45.7191V34.453Z" fill="black"/>
<path d="M215.273 51.8201C213.513 51.8201 212.096 51.3925 211.022 50.5375C209.948 49.6824 209.411 48.5847 209.411 47.2443V46.9323C209.411 46.7012 209.526 46.5857 209.754 46.5857H211.434C211.662 46.5857 211.776 46.7012 211.776 46.9323V47.175C211.776 47.9145 212.096 48.5616 212.736 49.1162C213.399 49.6477 214.244 49.9135 215.273 49.9135C216.278 49.9135 217.089 49.6477 217.706 49.1162C218.323 48.5847 218.632 47.9145 218.632 47.1056C218.632 46.5279 218.46 46.0426 218.118 45.6497C217.775 45.2569 217.352 44.9449 216.849 44.7138C216.347 44.4827 215.65 44.2169 214.759 43.9165C213.685 43.5467 212.793 43.177 212.085 42.8072C211.377 42.4374 210.771 41.929 210.268 41.2819C209.788 40.6118 209.549 39.7682 209.549 38.7514C209.549 37.2724 210.063 36.1053 211.091 35.2502C212.119 34.3721 213.479 33.933 215.17 33.933C216.906 33.933 218.289 34.3836 219.317 35.2849C220.368 36.1862 220.894 37.3417 220.894 38.7514V38.8207C220.894 39.0518 220.78 39.1674 220.551 39.1674H218.974C218.746 39.1674 218.632 39.0518 218.632 38.8207V38.6821C218.632 37.8963 218.312 37.2493 217.672 36.7408C217.055 36.2093 216.221 35.9435 215.17 35.9435C214.187 35.9435 213.387 36.1978 212.77 36.7062C212.176 37.1915 211.879 37.827 211.879 38.6127C211.879 39.4216 212.176 40.034 212.77 40.45C213.387 40.866 214.347 41.3051 215.65 41.7673C216.769 42.137 217.695 42.5068 218.426 42.8765C219.157 43.2463 219.774 43.7663 220.277 44.4364C220.803 45.0835 221.065 45.927 221.065 46.967C221.065 48.446 220.54 49.6246 219.489 50.5028C218.437 51.381 217.032 51.8201 215.273 51.8201Z" fill="black"/>
<path d="M230.037 33.829C231.865 33.829 233.293 34.3605 234.321 35.4236C235.372 36.4866 235.898 37.8963 235.898 39.6527V51.3001C235.898 51.5312 235.783 51.6468 235.555 51.6468H233.807C233.578 51.6468 233.464 51.5312 233.464 51.3001V50.0522C233.464 50.0059 233.441 49.9713 233.396 49.9482C233.373 49.9251 233.338 49.9366 233.293 49.9828C232.79 50.6299 232.15 51.1152 231.373 51.4388C230.596 51.7623 229.728 51.9241 228.768 51.9241C227.329 51.9241 226.095 51.5312 225.066 50.7455C224.061 49.9597 223.558 48.6771 223.558 46.8977C223.558 45.0489 224.141 43.6507 225.306 42.7032C226.495 41.7326 228.106 41.2473 230.139 41.2473H233.327C233.418 41.2473 233.464 41.2011 233.464 41.1086V39.7914C233.464 38.6127 233.167 37.6883 232.573 37.0182C232.002 36.3249 231.145 35.9782 230.002 35.9782C229.111 35.9782 228.368 36.2093 227.774 36.6715C227.18 37.1106 226.826 37.6999 226.712 38.4394C226.689 38.6474 226.563 38.7514 226.335 38.7514L224.45 38.6474C224.335 38.6474 224.244 38.6127 224.175 38.5434C224.13 38.4741 224.118 38.3932 224.141 38.3008C224.301 36.9604 224.918 35.8858 225.992 35.0769C227.089 34.245 228.437 33.829 230.037 33.829ZM229.248 49.7748C230.391 49.7748 231.373 49.4629 232.196 48.8389C233.041 48.1918 233.464 47.3021 233.464 46.1697V43.3618C233.464 43.2694 233.418 43.2232 233.327 43.2232H230.311C229.008 43.2232 227.969 43.5352 227.192 44.1591C226.415 44.76 226.026 45.6266 226.026 46.759C226.026 47.7758 226.323 48.5385 226.917 49.0469C227.512 49.5322 228.288 49.7748 229.248 49.7748ZM232.744 30.8825C232.173 30.8825 231.705 30.6976 231.339 30.3278C230.996 29.9581 230.825 29.4959 230.825 28.9412C230.825 28.3635 230.996 27.9013 231.339 27.5546C231.705 27.1849 232.173 27 232.744 27C233.293 27 233.75 27.1849 234.115 27.5546C234.481 27.9013 234.664 28.3635 234.664 28.9412C234.664 29.4959 234.481 29.9581 234.115 30.3278C233.75 30.6976 233.293 30.8825 232.744 30.8825ZM227.26 30.8825C226.689 30.8825 226.22 30.6976 225.855 30.3278C225.512 29.9581 225.341 29.4959 225.341 28.9412C225.341 28.3635 225.512 27.9013 225.855 27.5546C226.22 27.1849 226.689 27 227.26 27C227.809 27 228.266 27.1849 228.631 27.5546C228.997 27.9013 229.18 28.3635 229.18 28.9412C229.18 29.4959 228.997 29.9581 228.631 30.3278C228.266 30.6976 227.809 30.8825 227.26 30.8825Z" fill="black"/>
<path d="M246.384 33.933C247.07 33.933 247.652 34.0716 248.132 34.349C248.292 34.4183 248.349 34.557 248.304 34.7649L247.892 36.5675C247.869 36.7986 247.732 36.8679 247.481 36.7755C247.115 36.6137 246.715 36.5329 246.281 36.5329L245.87 36.5675C244.864 36.5906 244.03 37.0297 243.368 37.8848C242.705 38.7398 242.374 39.7798 242.374 41.0046V51.3001C242.374 51.5312 242.259 51.6468 242.031 51.6468H240.283C240.054 51.6468 239.94 51.5312 239.94 51.3001V34.453C239.94 34.2219 240.054 34.1063 240.283 34.1063H242.031C242.259 34.1063 242.374 34.2219 242.374 34.453V36.7062C242.374 36.7755 242.385 36.8102 242.408 36.8102C242.454 36.8102 242.488 36.7871 242.511 36.7408C242.899 35.8627 243.413 35.1809 244.053 34.6956C244.716 34.1872 245.493 33.933 246.384 33.933Z" fill="black"/>
<path d="M249.986 51.6468C249.757 51.6468 249.643 51.5312 249.643 51.3001V49.6362C249.643 49.4513 249.689 49.3011 249.78 49.1855L258.178 36.5329C258.201 36.5097 258.201 36.4751 258.178 36.4289C258.155 36.3826 258.121 36.3595 258.075 36.3595H250.123C249.894 36.3595 249.78 36.244 249.78 36.0129V34.453C249.78 34.2219 249.894 34.1063 250.123 34.1063H260.783C261.011 34.1063 261.125 34.2219 261.125 34.453V36.1169C261.125 36.3018 261.08 36.452 260.988 36.5675L252.522 49.2202C252.499 49.2433 252.499 49.278 252.522 49.3242C252.545 49.3704 252.579 49.3935 252.625 49.3935H260.817C261.045 49.3935 261.16 49.5091 261.16 49.7402V51.3001C261.16 51.5312 261.045 51.6468 260.817 51.6468H249.986Z" fill="black"/>
<path d="M271.351 35.7009C271.351 35.932 271.236 36.0475 271.008 36.0475H267.752C267.66 36.0475 267.615 36.0938 267.615 36.1862V46.5857C267.615 47.6718 267.82 48.4345 268.232 48.8736C268.666 49.2895 269.351 49.4975 270.288 49.4975H270.871C271.099 49.4975 271.214 49.6131 271.214 49.8442V51.3001C271.214 51.5312 271.099 51.6468 270.871 51.6468L269.808 51.6814C268.323 51.6814 267.192 51.381 266.415 50.7801C265.638 50.1562 265.25 49.0122 265.25 47.3483V36.1862C265.25 36.0938 265.204 36.0475 265.112 36.0475H263.399C263.17 36.0475 263.056 35.932 263.056 35.7009V34.453C263.056 34.2219 263.17 34.1063 263.399 34.1063H265.112C265.204 34.1063 265.25 34.0601 265.25 33.9676V30.0158C265.25 29.7847 265.364 29.6692 265.592 29.6692H267.272C267.5 29.6692 267.615 29.7847 267.615 30.0158V33.9676C267.615 34.0601 267.66 34.1063 267.752 34.1063H271.008C271.236 34.1063 271.351 34.2219 271.351 34.453V35.7009Z" fill="black"/>
<path d="M275.101 51.6468C274.873 51.6468 274.759 51.5312 274.759 51.3001V27.728C274.759 27.4969 274.873 27.3813 275.101 27.3813H276.85C277.078 27.3813 277.192 27.4969 277.192 27.728V51.3001C277.192 51.5312 277.078 51.6468 276.85 51.6468H275.101Z" fill="black"/>
<path d="M283.158 30.9171C282.587 30.9171 282.119 30.7323 281.753 30.3625C281.41 29.9927 281.239 29.5305 281.239 28.9759C281.239 28.3982 281.41 27.936 281.753 27.5893C282.119 27.2195 282.587 27.0347 283.158 27.0347C283.707 27.0347 284.164 27.2195 284.529 27.5893C284.895 27.936 285.078 28.3982 285.078 28.9759C285.078 29.5305 284.895 29.9927 284.529 30.3625C284.164 30.7323 283.707 30.9171 283.158 30.9171ZM282.233 51.6468C282.004 51.6468 281.89 51.5312 281.89 51.3001V34.453C281.89 34.2219 282.004 34.1063 282.233 34.1063H283.981C284.209 34.1063 284.324 34.2219 284.324 34.453V51.3001C284.324 51.5312 284.209 51.6468 283.981 51.6468H282.233Z" fill="black"/>
<path d="M294.998 51.9241C293.353 51.9241 291.993 51.4734 290.919 50.5721C289.845 49.6477 289.194 48.4114 288.965 46.863C288.828 45.6844 288.76 44.344 288.76 42.8419C288.76 41.6633 288.828 40.3344 288.965 38.8554C289.171 37.3533 289.822 36.14 290.919 35.2156C292.016 34.2912 293.376 33.829 294.998 33.829C296.62 33.829 297.98 34.2681 299.077 35.1463C300.196 36.0244 300.848 37.1222 301.031 38.4394L301.133 39.1674V39.2367C301.133 39.3292 301.099 39.41 301.031 39.4794C300.985 39.5256 300.916 39.5487 300.825 39.5487L299.077 39.6527C298.871 39.6527 298.745 39.5487 298.7 39.3407C298.7 39.1327 298.688 38.9941 298.665 38.9247C298.551 38.1159 298.151 37.4226 297.466 36.8448C296.803 36.2671 295.98 35.9782 294.998 35.9782C293.992 35.9782 293.158 36.2902 292.496 36.9142C291.856 37.5381 291.479 38.347 291.365 39.3407C291.25 40.3344 291.193 41.513 291.193 42.8765C291.193 44.2631 291.25 45.4533 291.365 46.447C291.479 47.4639 291.856 48.2727 292.496 48.8736C293.158 49.4744 293.992 49.7748 294.998 49.7748C296.003 49.7748 296.837 49.486 297.5 48.9082C298.186 48.3305 298.574 47.6256 298.665 46.7937L298.7 46.5163C298.745 46.2621 298.871 46.1581 299.077 46.2044L300.791 46.343C300.996 46.3892 301.099 46.4932 301.099 46.655V46.7937C301.099 46.8861 301.076 47.0248 301.031 47.2096C300.871 48.5731 300.231 49.7055 299.111 50.6068C298.014 51.485 296.643 51.9241 294.998 51.9241Z" fill="black"/>
<path d="M311.38 33.8637C312.979 33.8637 314.236 34.3836 315.15 35.4236C316.087 36.4404 316.555 37.8386 316.555 39.618V51.3001C316.555 51.5312 316.441 51.6468 316.213 51.6468H314.465C314.236 51.6468 314.122 51.5312 314.122 51.3001V39.9647C314.122 38.763 313.813 37.8039 313.196 37.0875C312.579 36.3711 311.734 36.0129 310.66 36.0129C309.586 36.0129 308.718 36.3826 308.055 37.1222C307.415 37.8386 307.095 38.8092 307.095 40.034V51.3001C307.095 51.5312 306.981 51.6468 306.752 51.6468H305.004C304.776 51.6468 304.662 51.5312 304.662 51.3001V27.728C304.662 27.4969 304.776 27.3813 305.004 27.3813H306.752C306.981 27.3813 307.095 27.4969 307.095 27.728V35.8049C307.095 35.8511 307.107 35.8858 307.13 35.9089C307.175 35.932 307.221 35.9204 307.267 35.8742C308.158 34.5338 309.529 33.8637 311.38 33.8637Z" fill="black"/>
<path d="M326.582 49.7748C327.45 49.7748 328.193 49.5553 328.81 49.1162C329.449 48.654 329.906 48.0416 330.181 47.279C330.249 47.071 330.386 46.9901 330.592 47.0363L332.169 47.3483C332.283 47.3714 332.351 47.4292 332.374 47.5216C332.42 47.591 332.431 47.6718 332.409 47.7643C332.02 49.0584 331.312 50.0753 330.284 50.8148C329.255 51.5543 328.01 51.9241 326.547 51.9241C324.879 51.9241 323.52 51.485 322.469 50.6068C321.417 49.7055 320.766 48.4922 320.515 46.967C320.423 46.3892 320.366 45.7075 320.343 44.9218C320.321 44.136 320.309 43.4889 320.309 42.9805C320.309 42.449 320.309 42.0792 320.309 41.8712C320.309 40.6926 320.355 39.7336 320.446 38.9941C320.629 37.4457 321.257 36.1978 322.331 35.2502C323.428 34.3027 324.799 33.829 326.445 33.829C328.204 33.829 329.632 34.3374 330.729 35.3542C331.826 36.3711 332.443 37.7115 332.58 39.3754C332.649 40.138 332.683 41.5362 332.683 43.5698C332.683 43.8009 332.569 43.9165 332.34 43.9165H322.88C322.788 43.9165 322.743 43.9627 322.743 44.0551C322.743 44.7715 322.766 45.5688 322.811 46.447C322.926 47.4407 323.314 48.2496 323.977 48.8736C324.662 49.4744 325.531 49.7748 326.582 49.7748ZM326.479 35.9782C325.451 35.9782 324.605 36.2902 323.942 36.9142C323.303 37.515 322.926 38.3123 322.811 39.306C322.766 40.2767 322.743 41.0855 322.743 41.7326C322.743 41.825 322.788 41.8712 322.88 41.8712H330.112C330.204 41.8712 330.249 41.825 330.249 41.7326C330.249 41.0624 330.204 40.2651 330.112 39.3407C329.998 38.347 329.609 37.5381 328.947 36.9142C328.307 36.2902 327.484 35.9782 326.479 35.9782Z" fill="black"/>
<path d="M350.984 27.3466C352.812 27.3466 354.285 27.9706 355.405 29.2186C356.548 30.4434 357.119 32.0726 357.119 34.1063C357.119 36.1169 356.548 37.7346 355.405 38.9594C354.285 40.1611 352.812 40.762 350.984 40.762H345.876C345.785 40.762 345.739 40.8082 345.739 40.9006V51.3001C345.739 51.5312 345.625 51.6468 345.397 51.6468H343.648C343.42 51.6468 343.306 51.5312 343.306 51.3001V27.6933C343.306 27.4622 343.42 27.3466 343.648 27.3466H350.984ZM350.675 38.7167C351.886 38.7167 352.857 38.3008 353.589 37.4688C354.32 36.6368 354.685 35.5276 354.685 34.141C354.685 32.7313 354.32 31.6104 353.589 30.7785C352.857 29.9234 351.886 29.4959 350.675 29.4959H345.876C345.785 29.4959 345.739 29.5421 345.739 29.6345V38.5781C345.739 38.6705 345.785 38.7167 345.876 38.7167H350.675Z" fill="black"/>
<path d="M366.805 33.933C367.491 33.933 368.074 34.0716 368.554 34.349C368.713 34.4183 368.771 34.557 368.725 34.7649L368.314 36.5675C368.291 36.7986 368.154 36.8679 367.902 36.7755C367.537 36.6137 367.137 36.5329 366.703 36.5329L366.291 36.5675C365.286 36.5906 364.452 37.0297 363.789 37.8848C363.126 38.7398 362.795 39.7798 362.795 41.0046V51.3001C362.795 51.5312 362.681 51.6468 362.452 51.6468H360.704C360.476 51.6468 360.362 51.5312 360.362 51.3001V34.453C360.362 34.2219 360.476 34.1063 360.704 34.1063H362.452C362.681 34.1063 362.795 34.2219 362.795 34.453V36.7062C362.795 36.7755 362.807 36.8102 362.829 36.8102C362.875 36.8102 362.909 36.7871 362.932 36.7408C363.321 35.8627 363.835 35.1809 364.475 34.6956C365.137 34.1872 365.914 33.933 366.805 33.933Z" fill="black"/>
<path d="M376.785 33.829C378.613 33.829 380.041 34.3605 381.069 35.4236C382.12 36.4866 382.646 37.8963 382.646 39.6527V51.3001C382.646 51.5312 382.532 51.6468 382.303 51.6468H380.555C380.327 51.6468 380.212 51.5312 380.212 51.3001V50.0522C380.212 50.0059 380.19 49.9713 380.144 49.9482C380.121 49.9251 380.087 49.9366 380.041 49.9828C379.538 50.6299 378.899 51.1152 378.122 51.4388C377.345 51.7623 376.476 51.9241 375.517 51.9241C374.077 51.9241 372.843 51.5312 371.815 50.7455C370.809 49.9597 370.307 48.6771 370.307 46.8977C370.307 45.0489 370.889 43.6507 372.055 42.7032C373.243 41.7326 374.854 41.2473 376.888 41.2473H380.075C380.167 41.2473 380.212 41.2011 380.212 41.1086V39.7914C380.212 38.6127 379.915 37.6883 379.321 37.0182C378.75 36.3249 377.893 35.9782 376.751 35.9782C375.859 35.9782 375.117 36.2093 374.523 36.6715C373.929 37.1106 373.574 37.6999 373.46 38.4394C373.437 38.6474 373.312 38.7514 373.083 38.7514L371.198 38.6474C371.084 38.6474 370.992 38.6127 370.924 38.5434C370.878 38.4741 370.867 38.3932 370.889 38.3008C371.049 36.9604 371.666 35.8858 372.74 35.0769C373.837 34.245 375.185 33.829 376.785 33.829ZM375.996 49.7748C377.139 49.7748 378.122 49.4629 378.944 48.8389C379.79 48.1918 380.212 47.3021 380.212 46.1697V43.3618C380.212 43.2694 380.167 43.2232 380.075 43.2232H377.059C375.757 43.2232 374.717 43.5352 373.94 44.1591C373.163 44.76 372.775 45.6266 372.775 46.759C372.775 47.7758 373.072 48.5385 373.666 49.0469C374.26 49.5322 375.037 49.7748 375.996 49.7748Z" fill="black"/>
<path d="M385.454 51.6468C385.317 51.6468 385.225 51.6121 385.18 51.5428C385.134 51.4503 385.145 51.3463 385.214 51.2308L390.15 42.9805C390.195 42.9112 390.195 42.8419 390.15 42.7725L385.214 34.5223C385.168 34.4298 385.145 34.3605 385.145 34.3143C385.145 34.1756 385.248 34.1063 385.454 34.1063H387.373C387.533 34.1063 387.67 34.1872 387.784 34.349L391.521 40.6926C391.543 40.7157 391.578 40.7273 391.623 40.7273C391.669 40.7273 391.703 40.7157 391.726 40.6926L395.428 34.349C395.542 34.1872 395.679 34.1063 395.839 34.1063H397.793C397.93 34.1063 398.022 34.1525 398.067 34.245C398.113 34.3143 398.102 34.4067 398.033 34.5223L393.097 42.7725C393.074 42.8419 393.074 42.9112 393.097 42.9805L398.033 51.2308C398.079 51.3232 398.102 51.3925 398.102 51.4388C398.102 51.5774 397.999 51.6468 397.793 51.6468H395.908C395.748 51.6468 395.611 51.5659 395.497 51.4041L391.761 45.0258C391.738 44.9795 391.703 44.9564 391.658 44.9564C391.612 44.9564 391.578 44.9795 391.555 45.0258L387.819 51.4041C387.705 51.5659 387.567 51.6468 387.407 51.6468H385.454Z" fill="black"/>
<path d="M402.55 30.9171C401.979 30.9171 401.51 30.7323 401.145 30.3625C400.802 29.9927 400.631 29.5305 400.631 28.9759C400.631 28.3982 400.802 27.936 401.145 27.5893C401.51 27.2195 401.979 27.0347 402.55 27.0347C403.098 27.0347 403.555 27.2195 403.921 27.5893C404.287 27.936 404.469 28.3982 404.469 28.9759C404.469 29.5305 404.287 29.9927 403.921 30.3625C403.555 30.7323 403.098 30.9171 402.55 30.9171ZM401.625 51.6468C401.396 51.6468 401.282 51.5312 401.282 51.3001V34.453C401.282 34.2219 401.396 34.1063 401.625 34.1063H403.373C403.601 34.1063 403.715 34.2219 403.715 34.453V51.3001C403.715 51.5312 403.601 51.6468 403.373 51.6468H401.625Z" fill="black"/>
<path d="M413.704 51.8201C411.945 51.8201 410.528 51.3925 409.454 50.5375C408.38 49.6824 407.843 48.5847 407.843 47.2443V46.9323C407.843 46.7012 407.957 46.5857 408.186 46.5857H409.865C410.094 46.5857 410.208 46.7012 410.208 46.9323V47.175C410.208 47.9145 410.528 48.5616 411.168 49.1162C411.83 49.6477 412.676 49.9135 413.704 49.9135C414.71 49.9135 415.521 49.6477 416.138 49.1162C416.755 48.5847 417.063 47.9145 417.063 47.1056C417.063 46.5279 416.892 46.0426 416.549 45.6497C416.206 45.2569 415.784 44.9449 415.281 44.7138C414.778 44.4827 414.081 44.2169 413.19 43.9165C412.116 43.5467 411.225 43.177 410.516 42.8072C409.808 42.4374 409.203 41.929 408.7 41.2819C408.22 40.6118 407.98 39.7682 407.98 38.7514C407.98 37.2724 408.494 36.1053 409.522 35.2502C410.551 34.3721 411.91 33.933 413.601 33.933C415.338 33.933 416.72 34.3836 417.749 35.2849C418.8 36.1862 419.325 37.3417 419.325 38.7514V38.8207C419.325 39.0518 419.211 39.1674 418.983 39.1674H417.406C417.177 39.1674 417.063 39.0518 417.063 38.8207V38.6821C417.063 37.8963 416.743 37.2493 416.103 36.7408C415.487 36.2093 414.652 35.9435 413.601 35.9435C412.619 35.9435 411.819 36.1978 411.202 36.7062C410.608 37.1915 410.311 37.827 410.311 38.6127C410.311 39.4216 410.608 40.034 411.202 40.45C411.819 40.866 412.779 41.3051 414.081 41.7673C415.201 42.137 416.126 42.5068 416.858 42.8765C417.589 43.2463 418.206 43.7663 418.708 44.4364C419.234 45.0835 419.497 45.927 419.497 46.967C419.497 48.446 418.971 49.6246 417.92 50.5028C416.869 51.381 415.464 51.8201 413.704 51.8201Z" fill="black"/>
<path d="M160.392 94.1162C160.131 94.1162 160 93.9842 160 93.72V66.7804C160 66.5163 160.131 66.3843 160.392 66.3843H168.344C170.772 66.3843 172.705 67.0842 174.141 68.484C175.604 69.8838 176.335 71.7458 176.335 74.07V86.4305C176.335 88.7547 175.604 90.6167 174.141 92.0165C172.705 93.4163 170.772 94.1162 168.344 94.1162H160.392ZM163.761 90.6695C163.761 90.7752 163.813 90.828 163.917 90.828L168.422 90.7884C169.676 90.7884 170.668 90.3658 171.399 89.5206C172.157 88.6491 172.548 87.487 172.574 86.0343V74.4662C172.574 72.9871 172.196 71.825 171.438 70.9799C170.681 70.1083 169.663 69.6725 168.383 69.6725H163.917C163.813 69.6725 163.761 69.7253 163.761 69.831V90.6695Z" fill="black"/>
<path d="M188.751 73.7531C189.534 73.7531 190.2 73.9115 190.748 74.2285C190.931 74.3077 190.996 74.4662 190.944 74.7039L190.357 77.7148C190.331 77.9789 190.174 78.0581 189.887 77.9525C189.495 77.8204 189.064 77.7544 188.594 77.7544C188.254 77.7544 188.006 77.7676 187.85 77.794C186.831 77.8732 185.982 78.3486 185.303 79.2202C184.624 80.0654 184.285 81.0822 184.285 82.2707V93.72C184.285 93.9842 184.154 94.1162 183.893 94.1162H180.916C180.655 94.1162 180.524 93.9842 180.524 93.72V74.3473C180.524 74.0832 180.655 73.9511 180.916 73.9511H183.893C184.154 73.9511 184.285 74.0832 184.285 74.3473V76.8828C184.285 76.962 184.298 77.0149 184.324 77.0413C184.376 77.0413 184.415 77.0149 184.442 76.962C185.382 74.8227 186.818 73.7531 188.751 73.7531Z" fill="black"/>
<path d="M194.988 94.1162C194.257 94.1162 193.657 93.8785 193.187 93.4031C192.716 92.9277 192.481 92.3202 192.481 91.5807C192.481 90.8412 192.716 90.2337 193.187 89.7583C193.657 89.2829 194.257 89.0452 194.988 89.0452C195.72 89.0452 196.32 89.2829 196.79 89.7583C197.261 90.2337 197.496 90.8412 197.496 91.5807C197.496 92.3202 197.261 92.9277 196.79 93.4031C196.32 93.8785 195.72 94.1162 194.988 94.1162Z" fill="black"/>
<path d="M227.873 73.6738C229.701 73.6738 231.111 74.2681 232.104 75.4566C233.122 76.6451 233.631 78.2958 233.631 80.4087V93.72C233.631 93.9842 233.501 94.1162 233.24 94.1162H230.302C230.041 94.1162 229.91 93.9842 229.91 93.72V80.9634C229.91 79.722 229.61 78.7448 229.009 78.0317C228.434 77.3186 227.638 76.962 226.619 76.962C225.601 76.962 224.778 77.3186 224.152 78.0317C223.551 78.7184 223.251 79.6692 223.251 80.8841V93.72C223.251 93.9842 223.12 94.1162 222.859 94.1162H219.921C219.66 94.1162 219.529 93.9842 219.529 93.72V80.9634C219.529 79.722 219.229 78.7448 218.628 78.0317C218.028 77.3186 217.231 76.962 216.239 76.962C215.22 76.962 214.398 77.3186 213.771 78.0317C213.17 78.7184 212.87 79.6692 212.87 80.8841V93.72C212.87 93.9842 212.739 94.1162 212.478 94.1162H209.54C209.279 94.1162 209.148 93.9842 209.148 93.72V74.3473C209.148 74.0832 209.279 73.9511 209.54 73.9511H212.478C212.739 73.9511 212.87 74.0832 212.87 74.3473V75.5358C212.87 75.5886 212.883 75.6283 212.909 75.6547C212.961 75.6811 213.014 75.6679 213.066 75.6151C214.136 74.3209 215.625 73.6738 217.531 73.6738C218.68 73.6738 219.673 73.9115 220.509 74.3869C221.344 74.8623 221.984 75.5622 222.428 76.4866C222.506 76.5923 222.585 76.5791 222.663 76.447C223.238 75.4962 223.982 74.7963 224.896 74.3473C225.836 73.8983 226.828 73.6738 227.873 73.6738Z" fill="black"/>
<path d="M244.962 91.1449C245.85 91.1449 246.595 90.9336 247.195 90.5111C247.822 90.0621 248.292 89.4546 248.605 88.6887C248.684 88.451 248.84 88.3585 249.075 88.4114L251.739 89.0056C252 89.0848 252.092 89.2433 252.013 89.481C251.517 91.0393 250.655 92.2542 249.428 93.1258C248.201 93.9974 246.699 94.4331 244.923 94.4331C242.886 94.4331 241.241 93.9181 239.987 92.8881C238.734 91.858 237.937 90.445 237.598 88.6491C237.467 87.9095 237.376 87.1304 237.324 86.3116C237.298 85.4665 237.285 84.3572 237.285 82.9838C237.285 81.6368 237.35 80.5672 237.48 79.7748C237.715 77.926 238.486 76.447 239.792 75.3377C241.097 74.202 242.743 73.6342 244.727 73.6342C246.895 73.6342 248.645 74.2549 249.976 75.4962C251.308 76.7375 252.053 78.375 252.209 80.4087C252.288 81.3067 252.327 82.9574 252.327 85.3608C252.327 85.625 252.196 85.757 251.935 85.757H241.202C241.097 85.757 241.045 85.8098 241.045 85.9155C241.045 86.655 241.084 87.3021 241.163 87.8567C241.293 88.8339 241.698 89.6263 242.377 90.2337C243.056 90.8412 243.918 91.1449 244.962 91.1449ZM244.766 76.9224C243.774 76.9224 242.951 77.2261 242.299 77.8336C241.672 78.4411 241.293 79.2334 241.163 80.2106C241.084 80.9237 241.045 81.7029 241.045 82.548C241.045 82.6537 241.097 82.7065 241.202 82.7065H248.41C248.514 82.7065 248.566 82.6537 248.566 82.548C248.514 81.4916 248.462 80.7257 248.41 80.2502C248.279 79.273 247.887 78.4807 247.234 77.8732C246.581 77.2393 245.759 76.9224 244.766 76.9224Z" fill="black"/>
<path d="M266.724 66.7804C266.724 66.5163 266.855 66.3843 267.116 66.3843H270.093C270.354 66.3843 270.485 66.5163 270.485 66.7804V93.72C270.485 93.9842 270.354 94.1162 270.093 94.1162H267.116C266.855 94.1162 266.724 93.9842 266.724 93.72V92.3731C266.724 92.3202 266.698 92.2806 266.646 92.2542C266.594 92.2278 266.555 92.241 266.528 92.2938C265.588 93.72 264.113 94.4331 262.102 94.4331C260.483 94.4331 259.177 93.9577 258.185 93.0069C257.192 92.0561 256.461 90.5903 255.991 88.6094C255.678 87.2361 255.521 85.7306 255.521 84.0931C255.521 82.4028 255.651 80.8973 255.913 79.5768C256.696 75.6151 258.824 73.6342 262.298 73.6342C263.316 73.6342 264.165 73.8059 264.844 74.1492C265.523 74.4926 266.084 75.0076 266.528 75.6943C266.581 75.7471 266.62 75.7735 266.646 75.7735C266.698 75.7735 266.724 75.7339 266.724 75.6547V66.7804ZM266.176 88.4906C266.515 87.4341 266.685 85.9419 266.685 84.0139C266.685 82.033 266.502 80.5276 266.137 79.4975C265.902 78.6524 265.536 78.0185 265.04 77.5959C264.57 77.1469 263.943 76.9224 263.16 76.9224C261.619 76.9224 260.548 77.7544 259.947 79.4183C259.53 80.6068 259.321 82.1387 259.321 84.0139C259.321 85.9155 259.49 87.3813 259.83 88.4114C260.378 90.2337 261.475 91.1449 263.12 91.1449C264.635 91.1449 265.654 90.2602 266.176 88.4906Z" fill="black"/>
<path d="M277.152 94.1162C276.42 94.1162 275.82 93.8785 275.35 93.4031C274.88 92.9277 274.644 92.3202 274.644 91.5807C274.644 90.8412 274.88 90.2337 275.35 89.7583C275.82 89.2829 276.42 89.0452 277.152 89.0452C277.883 89.0452 278.483 89.2829 278.953 89.7583C279.424 90.2337 279.659 90.8412 279.659 91.5807C279.659 92.3202 279.424 92.9277 278.953 93.4031C278.483 93.8785 277.883 94.1162 277.152 94.1162Z" fill="black"/>
<path d="M307.411 69.2763C307.411 69.5404 307.281 69.6725 307.02 69.6725H295.66C295.555 69.6725 295.503 69.7253 295.503 69.831V78.3882C295.503 78.4939 295.555 78.5467 295.66 78.5467H303.142C303.403 78.5467 303.533 78.6788 303.533 78.9429V81.4388C303.533 81.7029 303.403 81.8349 303.142 81.8349H295.66C295.555 81.8349 295.503 81.8878 295.503 81.9934V90.6695C295.503 90.7752 295.555 90.828 295.66 90.828H307.02C307.281 90.828 307.411 90.96 307.411 91.2242V93.72C307.411 93.9842 307.281 94.1162 307.02 94.1162H292.134C291.873 94.1162 291.742 93.9842 291.742 93.72V66.7804C291.742 66.5163 291.873 66.3843 292.134 66.3843H307.02C307.281 66.3843 307.411 66.5163 307.411 66.7804V69.2763Z" fill="black"/>
<path d="M329.804 73.6738C331.632 73.6738 333.043 74.2681 334.035 75.4566C335.054 76.6451 335.563 78.2958 335.563 80.4087V93.72C335.563 93.9842 335.432 94.1162 335.171 94.1162H332.233C331.972 94.1162 331.841 93.9842 331.841 93.72V80.9634C331.841 79.722 331.541 78.7448 330.94 78.0317C330.366 77.3186 329.569 76.962 328.551 76.962C327.532 76.962 326.71 77.3186 326.083 78.0317C325.482 78.7184 325.182 79.6692 325.182 80.8841V93.72C325.182 93.9842 325.051 94.1162 324.79 94.1162H321.852C321.591 94.1162 321.461 93.9842 321.461 93.72V80.9634C321.461 79.722 321.16 78.7448 320.56 78.0317C319.959 77.3186 319.163 76.962 318.17 76.962C317.152 76.962 316.329 77.3186 315.702 78.0317C315.102 78.7184 314.801 79.6692 314.801 80.8841V93.72C314.801 93.9842 314.671 94.1162 314.41 94.1162H311.472C311.211 94.1162 311.08 93.9842 311.08 93.72V74.3473C311.08 74.0832 311.211 73.9511 311.472 73.9511H314.41C314.671 73.9511 314.801 74.0832 314.801 74.3473V75.5358C314.801 75.5886 314.814 75.6283 314.84 75.6547C314.893 75.6811 314.945 75.6679 314.997 75.6151C316.068 74.3209 317.556 73.6738 319.463 73.6738C320.612 73.6738 321.604 73.9115 322.44 74.3869C323.276 74.8623 323.915 75.5622 324.359 76.4866C324.438 76.5923 324.516 76.5791 324.594 76.447C325.169 75.4962 325.913 74.7963 326.827 74.3473C327.767 73.8983 328.76 73.6738 329.804 73.6738Z" fill="black"/>
<path d="M341.955 70.7818C341.224 70.7818 340.623 70.5441 340.153 70.0687C339.683 69.5933 339.448 68.9858 339.448 68.2463C339.448 67.4804 339.683 66.8729 340.153 66.4239C340.623 65.9485 341.224 65.7108 341.955 65.7108C342.687 65.7108 343.287 65.9485 343.757 66.4239C344.227 66.8993 344.462 67.5068 344.462 68.2463C344.462 68.9858 344.214 69.5933 343.718 70.0687C343.248 70.5441 342.66 70.7818 341.955 70.7818ZM340.428 94.1162C340.166 94.1162 340.036 93.9842 340.036 93.72V74.3473C340.036 74.0832 340.166 73.9511 340.428 73.9511H343.405C343.666 73.9511 343.796 74.0832 343.796 74.3473V93.72C343.796 93.9842 343.666 94.1162 343.405 94.1162H340.428Z" fill="black"/>
<path d="M348.826 94.1162C348.565 94.1162 348.434 93.9842 348.434 93.72V66.7804C348.434 66.5163 348.565 66.3843 348.826 66.3843H351.803C352.064 66.3843 352.195 66.5163 352.195 66.7804V93.72C352.195 93.9842 352.064 94.1162 351.803 94.1162H348.826Z" fill="black"/>
<path d="M355.99 102C355.808 102 355.716 101.868 355.716 101.604V99.2664C355.716 99.0023 355.847 98.8703 356.108 98.8703H356.147C357.087 98.8438 357.818 98.7118 358.341 98.4741C358.889 98.2364 359.333 97.7874 359.673 97.1271C360.012 96.4932 360.326 95.5292 360.613 94.2351C360.639 94.2086 360.639 94.169 360.613 94.1162C360.613 94.037 360.613 93.9974 360.613 93.9974L354.854 74.3869L354.815 74.2681C354.815 74.0568 354.946 73.9511 355.207 73.9511H358.38C358.641 73.9511 358.785 74.07 358.811 74.3077L362.493 88.9264C362.519 88.9792 362.545 89.0188 362.571 89.0452C362.598 89.0452 362.624 89.0056 362.65 88.9264L366.293 74.3077C366.345 74.07 366.489 73.9511 366.724 73.9511L369.857 73.9908C369.988 73.9908 370.079 74.0304 370.132 74.1096C370.21 74.1888 370.236 74.2945 370.21 74.4265L363.982 95.5028C363.433 97.3252 362.885 98.6722 362.336 99.5437C361.788 100.442 361.044 101.076 360.104 101.445C359.19 101.815 357.897 102 356.225 102H355.99Z" fill="black"/>
<path d="M388.497 94.4331C386.016 94.4331 384.019 93.7068 382.504 92.2542C380.989 90.7752 380.232 88.8339 380.232 86.4305V74.07C380.232 71.6666 380.989 69.7385 382.504 68.2859C384.019 66.8069 386.016 66.0673 388.497 66.0673C390.143 66.0673 391.592 66.3975 392.845 67.0578C394.099 67.6916 395.065 68.6028 395.744 69.7913C396.449 70.9799 396.802 72.3268 396.802 73.8323V74.9019C396.802 75.1661 396.671 75.2981 396.41 75.2981H393.433C393.172 75.2981 393.041 75.1661 393.041 74.9019V73.8323C393.041 72.5117 392.623 71.4421 391.788 70.6233C390.978 69.7781 389.881 69.3556 388.497 69.3556C387.139 69.3556 386.042 69.7913 385.207 70.6629C384.371 71.5081 383.953 72.6174 383.953 73.9908V86.5097C383.953 87.8831 384.371 89.0056 385.207 89.8772C386.069 90.7223 387.191 91.1449 388.576 91.1449C389.934 91.1449 391.017 90.7488 391.827 89.9564C392.636 89.1641 393.041 88.0944 393.041 86.7474V83.0631C393.041 82.9574 392.989 82.9046 392.885 82.9046H388.771C388.51 82.9046 388.38 82.7725 388.38 82.5084V80.0522C388.38 79.788 388.51 79.656 388.771 79.656H396.41C396.671 79.656 396.802 79.788 396.802 80.0522V86.2324C396.802 88.7943 396.045 90.8016 394.53 92.2542C393.041 93.7068 391.03 94.4331 388.497 94.4331Z" fill="black"/>
<path d="M411.459 74.3473C411.459 74.0832 411.589 73.9511 411.85 73.9511H414.827C415.089 73.9511 415.219 74.0832 415.219 74.3473V93.72C415.219 93.9842 415.089 94.1162 414.827 94.1162H411.85C411.589 94.1162 411.459 93.9842 411.459 93.72V92.4919C411.459 92.4391 411.432 92.3995 411.38 92.3731C411.354 92.3466 411.315 92.3599 411.263 92.4127C410.349 93.7332 408.912 94.3935 406.954 94.3935C405.178 94.3935 403.702 93.8653 402.527 92.8088C401.378 91.7524 400.804 90.2205 400.804 88.2133V74.3473C400.804 74.0832 400.934 73.9511 401.195 73.9511H404.133C404.394 73.9511 404.525 74.0832 404.525 74.3473V87.1832C404.525 88.4246 404.812 89.3886 405.387 90.0753C405.987 90.762 406.836 91.1053 407.933 91.1053C409.004 91.1053 409.852 90.7488 410.479 90.0357C411.132 89.2961 411.459 88.3057 411.459 87.0644V74.3473ZM411.419 70.7025C410.688 70.7025 410.087 70.4648 409.617 69.9894C409.147 69.514 408.912 68.9066 408.912 68.167C408.912 67.4275 409.147 66.8201 409.617 66.3447C410.087 65.8693 410.688 65.6316 411.419 65.6316C412.151 65.6316 412.751 65.8693 413.221 66.3447C413.691 66.8201 413.926 67.4275 413.926 68.167C413.926 68.9066 413.691 69.514 413.221 69.9894C412.751 70.4648 412.151 70.7025 411.419 70.7025ZM404.682 70.7025C403.95 70.7025 403.35 70.4648 402.88 69.9894C402.41 69.514 402.175 68.9066 402.175 68.167C402.175 67.4275 402.41 66.8201 402.88 66.3447C403.35 65.8693 403.95 65.6316 404.682 65.6316C405.413 65.6316 406.014 65.8693 406.484 66.3447C406.954 66.8201 407.189 67.4275 407.189 68.167C407.189 68.9066 406.954 69.514 406.484 69.9894C406.014 70.4648 405.413 70.7025 404.682 70.7025Z" fill="black"/>
<path d="M428.119 73.6738C430.025 73.6738 431.501 74.2681 432.545 75.4566C433.616 76.6451 434.151 78.2826 434.151 80.3691V93.72C434.151 93.9842 434.021 94.1162 433.76 94.1162H430.783C430.521 94.1162 430.391 93.9842 430.391 93.72V80.9237C430.391 79.7088 430.077 78.7448 429.451 78.0317C428.85 77.3186 428.027 76.962 426.983 76.962C425.912 76.962 425.05 77.3318 424.397 78.0713C423.771 78.7844 423.457 79.7484 423.457 80.9634V93.72C423.457 93.9842 423.327 94.1162 423.066 94.1162H420.088C419.827 94.1162 419.697 93.9842 419.697 93.72V74.3473C419.697 74.0832 419.827 73.9511 420.088 73.9511H423.066C423.327 73.9511 423.457 74.0832 423.457 74.3473V75.5754C423.457 75.6547 423.47 75.7075 423.496 75.7339C423.549 75.7339 423.601 75.6943 423.653 75.6151C424.672 74.3209 426.16 73.6738 428.119 73.6738Z" fill="black"/>
<path d="M447.208 76.4866C447.208 76.7507 447.077 76.8828 446.816 76.8828H443.33C443.225 76.8828 443.173 76.9356 443.173 77.0413V87.8963C443.173 88.9792 443.382 89.7451 443.8 90.1941C444.244 90.6167 444.923 90.828 445.837 90.828H446.581C446.842 90.828 446.973 90.96 446.973 91.2242V93.72C446.973 93.9842 446.842 94.1162 446.581 94.1162L445.053 94.1558C443.225 94.1558 441.841 93.8125 440.901 93.1258C439.987 92.4127 439.53 91.1053 439.53 89.2037V77.0413C439.53 76.9356 439.478 76.8828 439.373 76.8828H437.454C437.193 76.8828 437.062 76.7507 437.062 76.4866V74.3473C437.062 74.0832 437.193 73.9511 437.454 73.9511H439.373C439.478 73.9511 439.53 73.8983 439.53 73.7927V69.2367C439.53 68.9726 439.661 68.8405 439.922 68.8405H442.781C443.042 68.8405 443.173 68.9726 443.173 69.2367V73.7927C443.173 73.8983 443.225 73.9511 443.33 73.9511H446.816C447.077 73.9511 447.208 74.0832 447.208 74.3473V76.4866Z" fill="black"/>
<path d="M459.048 73.6738C460.955 73.6738 462.43 74.2681 463.475 75.4566C464.546 76.6451 465.081 78.2826 465.081 80.3691V93.72C465.081 93.9842 464.95 94.1162 464.689 94.1162H461.712C461.451 94.1162 461.32 93.9842 461.32 93.72V80.9237C461.32 79.7088 461.007 78.7448 460.38 78.0317C459.78 77.3186 458.957 76.962 457.912 76.962C456.842 76.962 455.98 77.3318 455.327 78.0713C454.7 78.7844 454.387 79.7484 454.387 80.9634V93.72C454.387 93.9842 454.256 94.1162 453.995 94.1162H451.018C450.757 94.1162 450.626 93.9842 450.626 93.72V66.7804C450.626 66.5163 450.757 66.3843 451.018 66.3843H453.995C454.256 66.3843 454.387 66.5163 454.387 66.7804V75.5754C454.387 75.6547 454.4 75.7075 454.426 75.7339C454.478 75.7339 454.53 75.6943 454.583 75.6151C455.601 74.3209 457.09 73.6738 459.048 73.6738Z" fill="black"/>
<path d="M476.456 91.1449C477.344 91.1449 478.088 90.9336 478.689 90.5111C479.315 90.0621 479.785 89.4546 480.099 88.6887C480.177 88.451 480.334 88.3585 480.569 88.4114L483.233 89.0056C483.494 89.0848 483.585 89.2433 483.507 89.481C483.011 91.0393 482.149 92.2542 480.921 93.1258C479.694 93.9974 478.192 94.4331 476.417 94.4331C474.38 94.4331 472.734 93.9181 471.481 92.8881C470.227 91.858 469.431 90.445 469.091 88.6491C468.961 87.9095 468.869 87.1304 468.817 86.3116C468.791 85.4665 468.778 84.3572 468.778 82.9838C468.778 81.6368 468.843 80.5672 468.974 79.7748C469.209 77.926 469.979 76.447 471.285 75.3377C472.591 74.202 474.236 73.6342 476.221 73.6342C478.388 73.6342 480.138 74.2549 481.47 75.4962C482.802 76.7375 483.546 78.375 483.703 80.4087C483.781 81.3067 483.82 82.9574 483.82 85.3608C483.82 85.625 483.69 85.757 483.428 85.757H472.695C472.591 85.757 472.538 85.8098 472.538 85.9155C472.538 86.655 472.578 87.3021 472.656 87.8567C472.787 88.8339 473.191 89.6263 473.87 90.2337C474.549 90.8412 475.411 91.1449 476.456 91.1449ZM476.26 76.9224C475.267 76.9224 474.445 77.2261 473.792 77.8336C473.165 78.4411 472.787 79.2334 472.656 80.2106C472.578 80.9237 472.538 81.7029 472.538 82.548C472.538 82.6537 472.591 82.7065 472.695 82.7065H479.903C480.007 82.7065 480.06 82.6537 480.06 82.548C480.007 81.4916 479.955 80.7257 479.903 80.2502C479.772 79.273 479.381 78.4807 478.728 77.8732C478.075 77.2393 477.252 76.9224 476.26 76.9224Z" fill="black"/>
<path d="M495.789 73.7531C496.572 73.7531 497.238 73.9115 497.787 74.2285C497.97 74.3077 498.035 74.4662 497.983 74.7039L497.395 77.7148C497.369 77.9789 497.212 78.0581 496.925 77.9525C496.533 77.8204 496.102 77.7544 495.632 77.7544C495.293 77.7544 495.045 77.7676 494.888 77.794C493.869 77.8732 493.021 78.3486 492.342 79.2202C491.663 80.0654 491.323 81.0822 491.323 82.2707V93.72C491.323 93.9842 491.193 94.1162 490.932 94.1162H487.954C487.693 94.1162 487.563 93.9842 487.563 93.72V74.3473C487.563 74.0832 487.693 73.9511 487.954 73.9511H490.932C491.193 73.9511 491.323 74.0832 491.323 74.3473V76.8828C491.323 76.962 491.336 77.0149 491.362 77.0413C491.415 77.0413 491.454 77.0149 491.48 76.962C492.42 74.8227 493.856 73.7531 495.789 73.7531Z" fill="black"/>
<path d="M107.804 24.0866C109.222 22.4875 109.012 20.0275 107.61 18.4991C103.944 14.5013 94.7864 9.23693 89.7276 7.13307C46.3133 -10.9219 -1.90031 20.8152 1.80171 68.5153C3.51941 90.6365 17.6338 110.991 37.7224 120.246C40.4806 111.932 45.3294 104.01 52.6225 98.9717C59.5924 94.1578 68.0417 92.1648 74.4972 86.6316C74.5656 86.3226 72.4492 85.1079 72.0552 84.8178C68.3626 82.1031 65.5642 79.2563 62.8036 75.5981C60.7533 72.881 59.5169 70.105 56.3741 68.3455C47.2193 63.2226 40.4334 73.5579 36.2855 80.2469C32.3192 86.6481 29.0348 93.4738 25.5805 100.158C25.4224 100.271 24.297 99.0637 24.1247 98.875C17.0652 91.153 11.1759 77.1052 10.6899 66.6473C8.71734 24.0913 54.3402 -2.61732 91.2141 17.7892C94.7816 19.7633 97.6673 22.4615 100.966 24.4569C102.962 25.6645 106.105 26.0018 107.804 24.0866ZM77.6919 54.4534C77.6919 47.479 72.0363 41.8255 65.0593 41.8255C58.0823 41.8255 52.4267 47.479 52.4267 54.4534C52.4267 61.4277 58.0823 67.0813 65.0593 67.0813C72.0363 67.0813 77.6919 61.4277 77.6919 54.4534ZM124.917 50.4461C124.249 47.446 123.357 44.3115 121.977 41.5873L91.5279 41.5897C91.0419 41.5897 91.6011 42.8539 91.7025 43.1251C93.5901 48.1277 99.4699 50.8141 104.531 51.1632C106.239 51.2811 114.986 50.7999 115.748 51.7882C117.605 58.121 117.223 65.7722 115.826 72.2041C111.926 90.1624 96.4309 101.915 78.9543 105.201C82.1986 101.422 85.5089 97.7759 88.3308 93.6271C90.3576 90.6482 94.3215 84.4287 93.0168 80.7988C92.2664 78.7138 89.9117 78.1831 88.0099 79.1124C86.1082 80.0417 82.6964 84.7966 80.9268 86.5726C74.811 92.7097 68.943 94.8465 61.4422 98.5566C51.9005 103.276 46.5822 108.75 42.6065 118.715C42.4178 119.187 41.3159 121.949 41.4881 122.128C43.8641 122.558 46.0867 123.56 48.4297 124.168C92.8587 135.723 134.909 95.2923 124.917 50.4461Z" fill="url(#paint0_linear_44_136)"/>
<defs>
<linearGradient id="paint0_linear_44_136" x1="1.60116" y1="64.0835" x2="126.403" y2="64.0835" gradientUnits="userSpaceOnUse">
<stop stop-color="#A2C01F"/>
<stop offset="0.08" stop-color="#87B524"/>
<stop offset="0.22" stop-color="#5EA52B"/>
<stop offset="0.37" stop-color="#3C9832"/>
<stop offset="0.52" stop-color="#218E37"/>
<stop offset="0.67" stop-color="#0E863B"/>
<stop offset="0.83" stop-color="#03823D"/>
<stop offset="1" stop-color="#00813E"/>
</linearGradient>
</defs>
</svg>
