<svg width="417" height="128" viewBox="0 0 417 128" fill="none" xmlns="http://www.w3.org/2000/svg">
<rect width="417" height="128" fill="white"/>
<path d="M168.374 41.5431C168.374 41.3744 168.459 41.29 168.627 41.29H169.918C170.086 41.29 170.171 41.3744 170.171 41.5431V58.7492C170.171 58.9179 170.086 59.0022 169.918 59.0022H168.627C168.459 59.0022 168.374 58.9179 168.374 58.7492V51.0064C168.374 50.939 168.341 50.9052 168.273 50.9052H161.998C161.93 50.9052 161.897 50.939 161.897 51.0064V58.7492C161.897 58.9179 161.812 59.0022 161.644 59.0022H160.353C160.184 59.0022 160.1 58.9179 160.1 58.7492V41.5431C160.1 41.3744 160.184 41.29 160.353 41.29H161.644C161.812 41.29 161.897 41.3744 161.897 41.5431V49.2352C161.897 49.3027 161.93 49.3364 161.998 49.3364H168.273C168.341 49.3364 168.374 49.3027 168.374 49.2352V41.5431Z" fill="black"/>
<path d="M177.875 45.9964C179.224 45.9964 180.279 46.3844 181.038 47.1604C181.814 47.9363 182.202 48.9653 182.202 50.2473V58.7492C182.202 58.9179 182.117 59.0022 181.949 59.0022H180.658C180.49 59.0022 180.405 58.9179 180.405 58.7492V57.8383C180.405 57.8046 180.388 57.7793 180.355 57.7624C180.338 57.7455 180.313 57.754 180.279 57.7877C179.908 58.26 179.435 58.6143 178.862 58.8504C178.288 59.0866 177.647 59.2047 176.939 59.2047C175.876 59.2047 174.965 58.9179 174.206 58.3444C173.464 57.7708 173.093 56.8346 173.093 55.5357C173.093 54.1862 173.523 53.1656 174.383 52.474C175.26 51.7655 176.45 51.4113 177.951 51.4113H180.304C180.372 51.4113 180.405 51.3776 180.405 51.3101V50.3486C180.405 49.4883 180.186 48.8135 179.747 48.3243C179.326 47.8182 178.693 47.5652 177.85 47.5652C177.192 47.5652 176.644 47.7339 176.205 48.0713C175.766 48.3918 175.505 48.8219 175.421 49.3617C175.404 49.5136 175.311 49.5895 175.142 49.5895L173.751 49.5136C173.666 49.5136 173.599 49.4883 173.548 49.4376C173.514 49.387 173.506 49.328 173.523 49.2605C173.641 48.2821 174.096 47.4977 174.889 46.9073C175.699 46.3001 176.694 45.9964 177.875 45.9964ZM177.293 57.6359C178.136 57.6359 178.862 57.4081 179.469 56.9527C180.093 56.4804 180.405 55.8309 180.405 55.0043V52.9548C180.405 52.8873 180.372 52.8536 180.304 52.8536H178.077C177.116 52.8536 176.348 53.0813 175.775 53.5368C175.201 53.9753 174.915 54.6079 174.915 55.4345C174.915 56.1767 175.134 56.7334 175.572 57.1045C176.011 57.4588 176.585 57.6359 177.293 57.6359Z" fill="black"/>
<path d="M192.017 46.4519C192.017 46.2832 192.102 46.1988 192.27 46.1988H193.561C193.729 46.1988 193.814 46.2832 193.814 46.4519V58.7492C193.814 58.9179 193.729 59.0022 193.561 59.0022H192.27C192.102 59.0022 192.017 58.9179 192.017 58.7492V57.7624C192.017 57.7118 192 57.6865 191.967 57.6865C191.95 57.6865 191.925 57.7034 191.891 57.7371C191.3 58.6986 190.322 59.1794 188.956 59.1794C187.809 59.1794 186.872 58.842 186.147 58.1672C185.422 57.4925 185.059 56.5141 185.059 55.2321V46.4519C185.059 46.2832 185.143 46.1988 185.312 46.1988H186.602C186.771 46.1988 186.855 46.2832 186.855 46.4519V54.7766C186.855 55.6707 187.075 56.3707 187.513 56.8768C187.952 57.366 188.568 57.6106 189.36 57.6106C190.187 57.6106 190.836 57.3491 191.309 56.8262C191.781 56.2864 192.017 55.5695 192.017 54.6754V46.4519Z" fill="black"/>
<path d="M200.885 59.1288C199.586 59.1288 198.541 58.8167 197.748 58.1925C196.955 57.5684 196.558 56.7671 196.558 55.7887V55.561C196.558 55.3923 196.643 55.308 196.811 55.308H198.051C198.22 55.308 198.304 55.3923 198.304 55.561V55.7381C198.304 56.2779 198.541 56.7503 199.013 57.1551C199.502 57.5431 200.126 57.7371 200.885 57.7371C201.627 57.7371 202.226 57.5431 202.682 57.1551C203.137 56.7671 203.365 56.2779 203.365 55.6875C203.365 55.2658 203.238 54.9116 202.985 54.6248C202.732 54.338 202.42 54.1103 202.049 53.9416C201.678 53.7729 201.164 53.5789 200.506 53.3596C199.713 53.0897 199.055 52.8198 198.532 52.5499C198.009 52.28 197.562 51.9089 197.191 51.4366C196.837 50.9474 196.66 50.3317 196.66 49.5895C196.66 48.5099 197.039 47.658 197.798 47.0338C198.557 46.3928 199.561 46.0723 200.809 46.0723C202.091 46.0723 203.112 46.4013 203.871 47.0591C204.647 47.717 205.035 48.5605 205.035 49.5895V49.6401C205.035 49.8088 204.951 49.8931 204.782 49.8931H203.618C203.449 49.8931 203.365 49.8088 203.365 49.6401V49.5389C203.365 48.9653 203.129 48.493 202.656 48.1219C202.201 47.7339 201.585 47.5399 200.809 47.5399C200.084 47.5399 199.494 47.7255 199.038 48.0966C198.6 48.4508 198.38 48.9147 198.38 49.4883C198.38 50.0787 198.6 50.5257 199.038 50.8293C199.494 51.133 200.202 51.4535 201.164 51.7908C201.99 52.0607 202.673 52.3306 203.213 52.6005C203.753 52.8704 204.208 53.25 204.58 53.7392C204.968 54.2115 205.162 54.8272 205.162 55.5863C205.162 56.6659 204.774 57.5262 203.998 58.1672C203.222 58.8083 202.184 59.1288 200.885 59.1288Z" fill="black"/>
<path d="M211.784 45.9964C213.134 45.9964 214.188 46.3844 214.947 47.1604C215.723 47.9363 216.111 48.9653 216.111 50.2473V58.7492C216.111 58.9179 216.027 59.0022 215.858 59.0022H214.568C214.399 59.0022 214.315 58.9179 214.315 58.7492V57.8383C214.315 57.8046 214.298 57.7793 214.264 57.7624C214.247 57.7455 214.222 57.754 214.188 57.7877C213.817 58.26 213.345 58.6143 212.771 58.8504C212.197 59.0866 211.556 59.2047 210.848 59.2047C209.785 59.2047 208.874 58.9179 208.115 58.3444C207.373 57.7708 207.002 56.8346 207.002 55.5357C207.002 54.1862 207.432 53.1656 208.292 52.474C209.17 51.7655 210.359 51.4113 211.86 51.4113H214.213C214.281 51.4113 214.315 51.3776 214.315 51.3101V50.3486C214.315 49.4883 214.095 48.8135 213.657 48.3243C213.235 47.8182 212.602 47.5652 211.759 47.5652C211.101 47.5652 210.553 47.7339 210.114 48.0713C209.676 48.3918 209.414 48.8219 209.33 49.3617C209.313 49.5136 209.22 49.5895 209.051 49.5895L207.66 49.5136C207.575 49.5136 207.508 49.4883 207.457 49.4376C207.424 49.387 207.415 49.328 207.432 49.2605C207.55 48.2821 208.006 47.4977 208.798 46.9073C209.608 46.3001 210.603 45.9964 211.784 45.9964ZM211.202 57.6359C212.046 57.6359 212.771 57.4081 213.378 56.9527C214.002 56.4804 214.315 55.8309 214.315 55.0043V52.9548C214.315 52.8873 214.281 52.8536 214.213 52.8536H211.987C211.025 52.8536 210.258 53.0813 209.684 53.5368C209.111 53.9753 208.824 54.6079 208.824 55.4345C208.824 56.1767 209.043 56.7334 209.482 57.1045C209.92 57.4588 210.494 57.6359 211.202 57.6359ZM213.783 43.8456C213.361 43.8456 213.016 43.7107 212.746 43.4408C212.493 43.1709 212.366 42.8335 212.366 42.4287C212.366 42.0069 212.493 41.6696 212.746 41.4165C213.016 41.1466 213.361 41.0117 213.783 41.0117C214.188 41.0117 214.525 41.1466 214.795 41.4165C215.065 41.6696 215.2 42.0069 215.2 42.4287C215.2 42.8335 215.065 43.1709 214.795 43.4408C214.525 43.7107 214.188 43.8456 213.783 43.8456ZM209.735 43.8456C209.313 43.8456 208.967 43.7107 208.697 43.4408C208.444 43.1709 208.318 42.8335 208.318 42.4287C208.318 42.0069 208.444 41.6696 208.697 41.4165C208.967 41.1466 209.313 41.0117 209.735 41.0117C210.14 41.0117 210.477 41.1466 210.747 41.4165C211.017 41.6696 211.152 42.0069 211.152 42.4287C211.152 42.8335 211.017 43.1709 210.747 43.4408C210.477 43.7107 210.14 43.8456 209.735 43.8456Z" fill="black"/>
<path d="M223.852 46.0723C224.358 46.0723 224.788 46.1735 225.143 46.376C225.261 46.4266 225.303 46.5278 225.269 46.6796L224.966 47.9954C224.949 48.1641 224.848 48.2147 224.662 48.1472C224.392 48.0291 224.097 47.9701 223.776 47.9701L223.473 47.9954C222.73 48.0122 222.115 48.3327 221.626 48.9569C221.136 49.581 220.892 50.3401 220.892 51.2342V58.7492C220.892 58.9179 220.807 59.0022 220.639 59.0022H219.348C219.18 59.0022 219.095 58.9179 219.095 58.7492V46.4519C219.095 46.2832 219.18 46.1988 219.348 46.1988H220.639C220.807 46.1988 220.892 46.2832 220.892 46.4519V48.0966C220.892 48.1472 220.9 48.1725 220.917 48.1725C220.951 48.1725 220.976 48.1556 220.993 48.1219C221.28 47.4809 221.659 46.9832 222.132 46.629C222.621 46.2579 223.194 46.0723 223.852 46.0723Z" fill="black"/>
<path d="M226.511 59.0022C226.342 59.0022 226.258 58.9179 226.258 58.7492V57.5347C226.258 57.3997 226.292 57.2901 226.359 57.2057L232.559 47.9701C232.575 47.9532 232.575 47.9279 232.559 47.8942C232.542 47.8604 232.516 47.8435 232.483 47.8435H226.612C226.444 47.8435 226.359 47.7592 226.359 47.5905V46.4519C226.359 46.2832 226.444 46.1988 226.612 46.1988H234.482C234.65 46.1988 234.735 46.2832 234.735 46.4519V47.6664C234.735 47.8014 234.701 47.911 234.633 47.9954L228.383 57.231C228.367 57.2479 228.367 57.2732 228.383 57.3069C228.4 57.3407 228.426 57.3575 228.459 57.3575H234.507C234.676 57.3575 234.76 57.4419 234.76 57.6106V58.7492C234.76 58.9179 234.676 59.0022 234.507 59.0022H226.511Z" fill="black"/>
<path d="M242.283 47.3628C242.283 47.5315 242.199 47.6158 242.03 47.6158H239.626C239.559 47.6158 239.525 47.6496 239.525 47.717V55.308C239.525 56.1008 239.677 56.6575 239.98 56.978C240.301 57.2816 240.807 57.4335 241.499 57.4335H241.929C242.097 57.4335 242.182 57.5178 242.182 57.6865V58.7492C242.182 58.9179 242.097 59.0022 241.929 59.0022L241.144 59.0276C240.048 59.0276 239.213 58.8083 238.639 58.3697C238.066 57.9142 237.779 57.0792 237.779 55.8647V47.717C237.779 47.6496 237.745 47.6158 237.678 47.6158H236.413C236.244 47.6158 236.16 47.5315 236.16 47.3628V46.4519C236.16 46.2832 236.244 46.1988 236.413 46.1988H237.678C237.745 46.1988 237.779 46.1651 237.779 46.0976V43.2131C237.779 43.0444 237.863 42.96 238.032 42.96H239.272C239.441 42.96 239.525 43.0444 239.525 43.2131V46.0976C239.525 46.1651 239.559 46.1988 239.626 46.1988H242.03C242.199 46.1988 242.283 46.2832 242.283 46.4519V47.3628Z" fill="black"/>
<path d="M245.052 59.0022C244.883 59.0022 244.799 58.9179 244.799 58.7492V41.5431C244.799 41.3744 244.883 41.29 245.052 41.29H246.342C246.511 41.29 246.595 41.3744 246.595 41.5431V58.7492C246.595 58.9179 246.511 59.0022 246.342 59.0022H245.052Z" fill="black"/>
<path d="M251 43.8709C250.578 43.8709 250.232 43.736 249.962 43.4661C249.709 43.1962 249.583 42.8588 249.583 42.454C249.583 42.0322 249.709 41.6949 249.962 41.4418C250.232 41.1719 250.578 41.037 251 41.037C251.404 41.037 251.742 41.1719 252.012 41.4418C252.282 41.6949 252.417 42.0322 252.417 42.454C252.417 42.8588 252.282 43.1962 252.012 43.4661C251.742 43.736 251.404 43.8709 251 43.8709ZM250.316 59.0022C250.148 59.0022 250.063 58.9179 250.063 58.7492V46.4519C250.063 46.2832 250.148 46.1988 250.316 46.1988H251.607C251.776 46.1988 251.86 46.2832 251.86 46.4519V58.7492C251.86 58.9179 251.776 59.0022 251.607 59.0022H250.316Z" fill="black"/>
<path d="M259.74 59.2047C258.525 59.2047 257.522 58.8757 256.729 58.2178C255.936 57.5431 255.455 56.6406 255.286 55.5104C255.185 54.6501 255.135 53.6717 255.135 52.5752C255.135 51.7149 255.185 50.745 255.286 49.6654C255.438 48.5689 255.919 47.6833 256.729 47.0085C257.538 46.3338 258.542 45.9964 259.74 45.9964C260.938 45.9964 261.941 46.3169 262.751 46.9579C263.578 47.5989 264.058 48.4002 264.193 49.3617L264.269 49.8931V49.9437C264.269 50.0112 264.244 50.0702 264.193 50.1208C264.159 50.1546 264.109 50.1714 264.041 50.1714L262.751 50.2473C262.599 50.2473 262.506 50.1714 262.473 50.0196C262.473 49.8678 262.464 49.7666 262.447 49.716C262.363 49.1256 262.068 48.6195 261.562 48.1978C261.072 47.7761 260.465 47.5652 259.74 47.5652C258.998 47.5652 258.382 47.7929 257.893 48.2484C257.42 48.7039 257.142 49.2943 257.058 50.0196C256.973 50.745 256.931 51.6053 256.931 52.6005C256.931 53.6127 256.973 54.4814 257.058 55.2068C257.142 55.949 257.42 56.5394 257.893 56.978C258.382 57.4166 258.998 57.6359 259.74 57.6359C260.482 57.6359 261.098 57.425 261.587 57.0033C262.093 56.5816 262.38 56.0671 262.447 55.4598L262.473 55.2574C262.506 55.0718 262.599 54.9959 262.751 55.0296L264.016 55.1309C264.168 55.1646 264.244 55.2405 264.244 55.3586V55.4598C264.244 55.5273 264.227 55.6285 264.193 55.7634C264.075 56.7587 263.603 57.5853 262.776 58.2432C261.967 58.8842 260.954 59.2047 259.74 59.2047Z" fill="black"/>
<path d="M271.833 46.0217C273.014 46.0217 273.942 46.4013 274.617 47.1604C275.308 47.9026 275.654 48.9231 275.654 50.222V58.7492C275.654 58.9179 275.57 59.0022 275.401 59.0022H274.11C273.942 59.0022 273.857 58.9179 273.857 58.7492V50.4751C273.857 49.5979 273.63 48.8978 273.174 48.3749C272.719 47.852 272.095 47.5905 271.302 47.5905C270.509 47.5905 269.868 47.8604 269.379 48.4002C268.906 48.9231 268.67 49.6316 268.67 50.5257V58.7492C268.67 58.9179 268.586 59.0022 268.417 59.0022H267.127C266.958 59.0022 266.874 58.9179 266.874 58.7492V41.5431C266.874 41.3744 266.958 41.29 267.127 41.29H268.417C268.586 41.29 268.67 41.3744 268.67 41.5431V47.4387C268.67 47.4724 268.679 47.4977 268.696 47.5146C268.729 47.5315 268.763 47.523 268.797 47.4893C269.455 46.5109 270.467 46.0217 271.833 46.0217Z" fill="black"/>
<path d="M283.056 57.6359C283.697 57.6359 284.245 57.4756 284.7 57.1551C285.173 56.8177 285.51 56.3707 285.712 55.814C285.763 55.6622 285.864 55.6032 286.016 55.6369L287.18 55.8647C287.264 55.8815 287.315 55.9237 287.332 55.9912C287.366 56.0418 287.374 56.1008 287.357 56.1683C287.07 57.1129 286.547 57.8552 285.788 58.395C285.029 58.9348 284.11 59.2047 283.03 59.2047C281.799 59.2047 280.795 58.8842 280.019 58.2432C279.243 57.5853 278.762 56.6997 278.577 55.5863C278.509 55.1646 278.467 54.667 278.45 54.0934C278.434 53.5199 278.425 53.0476 278.425 52.6765C278.425 52.2885 278.425 52.0186 278.425 51.8668C278.425 51.0064 278.459 50.3064 278.526 49.7666C278.661 48.6364 279.125 47.7255 279.918 47.0338C280.728 46.3422 281.74 45.9964 282.954 45.9964C284.253 45.9964 285.308 46.3675 286.117 47.1098C286.927 47.852 287.382 48.8304 287.484 50.0449C287.534 50.6016 287.56 51.6222 287.56 53.1066C287.56 53.2753 287.475 53.3596 287.306 53.3596H280.323C280.255 53.3596 280.222 53.3934 280.222 53.4609C280.222 53.9838 280.238 54.5658 280.272 55.2068C280.357 55.9321 280.643 56.5225 281.133 56.978C281.639 57.4166 282.28 57.6359 283.056 57.6359ZM282.98 47.5652C282.221 47.5652 281.596 47.7929 281.107 48.2484C280.635 48.687 280.357 49.269 280.272 49.9943C280.238 50.7028 280.222 51.2932 280.222 51.7655C280.222 51.833 280.255 51.8668 280.323 51.8668H285.662C285.729 51.8668 285.763 51.833 285.763 51.7655C285.763 51.2763 285.729 50.6944 285.662 50.0196C285.577 49.2943 285.291 48.7039 284.801 48.2484C284.329 47.7929 283.722 47.5652 282.98 47.5652Z" fill="black"/>
<path d="M301.069 41.2647C302.419 41.2647 303.507 41.7202 304.334 42.6311C305.177 43.5251 305.599 44.7144 305.599 46.1988C305.599 47.6664 305.177 48.8472 304.334 49.7413C303.507 50.6185 302.419 51.057 301.069 51.057H297.299C297.232 51.057 297.198 51.0908 297.198 51.1583V58.7492C297.198 58.9179 297.114 59.0022 296.945 59.0022H295.655C295.486 59.0022 295.402 58.9179 295.402 58.7492V41.5178C295.402 41.3491 295.486 41.2647 295.655 41.2647H301.069ZM300.842 49.5642C301.736 49.5642 302.453 49.2605 302.992 48.6532C303.532 48.046 303.802 47.2363 303.802 46.2241C303.802 45.1951 303.532 44.377 302.992 43.7697C302.453 43.1456 301.736 42.8335 300.842 42.8335H297.299C297.232 42.8335 297.198 42.8673 297.198 42.9347V49.4629C297.198 49.5304 297.232 49.5642 297.299 49.5642H300.842Z" fill="black"/>
<path d="M312.749 46.0723C313.255 46.0723 313.686 46.1735 314.04 46.376C314.158 46.4266 314.2 46.5278 314.166 46.6796L313.863 47.9954C313.846 48.1641 313.745 48.2147 313.559 48.1472C313.289 48.0291 312.994 47.9701 312.674 47.9701L312.37 47.9954C311.628 48.0122 311.012 48.3327 310.523 48.9569C310.034 49.581 309.789 50.3401 309.789 51.2342V58.7492C309.789 58.9179 309.705 59.0022 309.536 59.0022H308.245C308.077 59.0022 307.992 58.9179 307.992 58.7492V46.4519C307.992 46.2832 308.077 46.1988 308.245 46.1988H309.536C309.705 46.1988 309.789 46.2832 309.789 46.4519V48.0966C309.789 48.1472 309.797 48.1725 309.814 48.1725C309.848 48.1725 309.873 48.1556 309.89 48.1219C310.177 47.4809 310.556 46.9832 311.029 46.629C311.518 46.2579 312.092 46.0723 312.749 46.0723Z" fill="black"/>
<path d="M320.116 45.9964C321.466 45.9964 322.52 46.3844 323.279 47.1604C324.055 47.9363 324.443 48.9653 324.443 50.2473V58.7492C324.443 58.9179 324.359 59.0022 324.19 59.0022H322.9C322.731 59.0022 322.647 58.9179 322.647 58.7492V57.8383C322.647 57.8046 322.63 57.7793 322.596 57.7624C322.579 57.7455 322.554 57.754 322.52 57.7877C322.149 58.26 321.677 58.6143 321.103 58.8504C320.53 59.0866 319.889 59.2047 319.18 59.2047C318.117 59.2047 317.207 58.9179 316.447 58.3444C315.705 57.7708 315.334 56.8346 315.334 55.5357C315.334 54.1862 315.764 53.1656 316.625 52.474C317.502 51.7655 318.691 51.4113 320.192 51.4113H322.546C322.613 51.4113 322.647 51.3776 322.647 51.3101V50.3486C322.647 49.4883 322.427 48.8135 321.989 48.3243C321.567 47.8182 320.935 47.5652 320.091 47.5652C319.433 47.5652 318.885 47.7339 318.446 48.0713C318.008 48.3918 317.746 48.8219 317.662 49.3617C317.645 49.5136 317.552 49.5895 317.384 49.5895L315.992 49.5136C315.908 49.5136 315.84 49.4883 315.79 49.4376C315.756 49.387 315.747 49.328 315.764 49.2605C315.882 48.2821 316.338 47.4977 317.131 46.9073C317.94 46.3001 318.936 45.9964 320.116 45.9964ZM319.534 57.6359C320.378 57.6359 321.103 57.4081 321.711 56.9527C322.335 56.4804 322.647 55.8309 322.647 55.0043V52.9548C322.647 52.8873 322.613 52.8536 322.546 52.8536H320.319C319.357 52.8536 318.59 53.0813 318.016 53.5368C317.443 53.9753 317.156 54.6079 317.156 55.4345C317.156 56.1767 317.375 56.7334 317.814 57.1045C318.252 57.4588 318.826 57.6359 319.534 57.6359Z" fill="black"/>
<path d="M326.516 59.0022C326.415 59.0022 326.347 58.9769 326.314 58.9263C326.28 58.8589 326.288 58.783 326.339 58.6986L329.982 52.6765C330.016 52.6258 330.016 52.5752 329.982 52.5246L326.339 46.5025C326.305 46.435 326.288 46.3844 326.288 46.3507C326.288 46.2494 326.364 46.1988 326.516 46.1988H327.933C328.051 46.1988 328.152 46.2579 328.237 46.376L330.995 51.0064C331.011 51.0233 331.037 51.0317 331.07 51.0317C331.104 51.0317 331.13 51.0233 331.146 51.0064L333.879 46.376C333.964 46.2579 334.065 46.1988 334.183 46.1988H335.625C335.726 46.1988 335.794 46.2326 335.827 46.3001C335.861 46.3507 335.853 46.4181 335.802 46.5025L332.159 52.5246C332.142 52.5752 332.142 52.6258 332.159 52.6765L335.802 58.6986C335.836 58.7661 335.853 58.8167 335.853 58.8504C335.853 58.9516 335.777 59.0022 335.625 59.0022H334.233C334.115 59.0022 334.014 58.9432 333.93 58.8251L331.172 54.1693C331.155 54.1356 331.13 54.1187 331.096 54.1187C331.062 54.1187 331.037 54.1356 331.02 54.1693L328.262 58.8251C328.178 58.9432 328.076 59.0022 327.958 59.0022H326.516Z" fill="black"/>
<path d="M339.137 43.8709C338.715 43.8709 338.369 43.736 338.099 43.4661C337.846 43.1962 337.72 42.8588 337.72 42.454C337.72 42.0322 337.846 41.6949 338.099 41.4418C338.369 41.1719 338.715 41.037 339.137 41.037C339.542 41.037 339.879 41.1719 340.149 41.4418C340.419 41.6949 340.554 42.0322 340.554 42.454C340.554 42.8588 340.419 43.1962 340.149 43.4661C339.879 43.736 339.542 43.8709 339.137 43.8709ZM338.454 59.0022C338.285 59.0022 338.2 58.9179 338.2 58.7492V46.4519C338.2 46.2832 338.285 46.1988 338.454 46.1988H339.744C339.913 46.1988 339.997 46.2832 339.997 46.4519V58.7492C339.997 58.9179 339.913 59.0022 339.744 59.0022H338.454Z" fill="black"/>
<path d="M347.371 59.1288C346.072 59.1288 345.026 58.8167 344.233 58.1925C343.44 57.5684 343.044 56.7671 343.044 55.7887V55.561C343.044 55.3923 343.128 55.308 343.297 55.308H344.537C344.706 55.308 344.79 55.3923 344.79 55.561V55.7381C344.79 56.2779 345.026 56.7503 345.498 57.1551C345.988 57.5431 346.612 57.7371 347.371 57.7371C348.113 57.7371 348.712 57.5431 349.167 57.1551C349.623 56.7671 349.851 56.2779 349.851 55.6875C349.851 55.2658 349.724 54.9116 349.471 54.6248C349.218 54.338 348.906 54.1103 348.535 53.9416C348.164 53.7729 347.649 53.5789 346.991 53.3596C346.199 53.0897 345.541 52.8198 345.018 52.5499C344.495 52.28 344.048 51.9089 343.677 51.4366C343.322 50.9474 343.145 50.3317 343.145 49.5895C343.145 48.5099 343.525 47.658 344.284 47.0338C345.043 46.3928 346.047 46.0723 347.295 46.0723C348.577 46.0723 349.598 46.4013 350.357 47.0591C351.133 47.717 351.521 48.5605 351.521 49.5895V49.6401C351.521 49.8088 351.436 49.8931 351.268 49.8931H350.104C349.935 49.8931 349.851 49.8088 349.851 49.6401V49.5389C349.851 48.9653 349.614 48.493 349.142 48.1219C348.687 47.7339 348.071 47.5399 347.295 47.5399C346.57 47.5399 345.979 47.7255 345.524 48.0966C345.085 48.4508 344.866 48.9147 344.866 49.4883C344.866 50.0787 345.085 50.5257 345.524 50.8293C345.979 51.133 346.688 51.4535 347.649 51.7908C348.476 52.0607 349.159 52.3306 349.699 52.6005C350.239 52.8704 350.694 53.25 351.065 53.7392C351.453 54.2115 351.647 54.8272 351.647 55.5863C351.647 56.6659 351.259 57.5262 350.483 58.1672C349.707 58.8083 348.67 59.1288 347.371 59.1288Z" fill="black"/>
<path d="M160.371 90.0022C160.178 90.0022 160.082 89.9059 160.082 89.7131V70.0489C160.082 69.8561 160.178 69.7597 160.371 69.7597H166.242C168.034 69.7597 169.461 70.2706 170.521 71.2924C171.601 72.3141 172.141 73.6733 172.141 75.3698V84.3922C172.141 86.0887 171.601 87.4478 170.521 88.4696C169.461 89.4914 168.034 90.0022 166.242 90.0022H160.371ZM162.858 87.4864C162.858 87.5635 162.897 87.6021 162.974 87.6021L166.299 87.5731C167.225 87.5731 167.957 87.2647 168.497 86.6478C169.056 86.0116 169.345 85.1633 169.365 84.103V75.659C169.365 74.5794 169.085 73.7311 168.526 73.1142C167.967 72.478 167.215 72.1599 166.27 72.1599H162.974C162.897 72.1599 162.858 72.1985 162.858 72.2756V87.4864Z" fill="black"/>
<path d="M181.306 75.1384C181.885 75.1384 182.376 75.2541 182.781 75.4855C182.916 75.5433 182.964 75.659 182.926 75.8325L182.492 78.0302C182.473 78.223 182.357 78.2809 182.145 78.2037C181.856 78.1073 181.538 78.0591 181.191 78.0591C180.94 78.0591 180.757 78.0688 180.641 78.0881C179.889 78.1459 179.263 78.4929 178.761 79.1291C178.26 79.746 178.01 80.4883 178.01 81.3558V89.7131C178.01 89.9059 177.913 90.0022 177.72 90.0022H175.523C175.33 90.0022 175.233 89.9059 175.233 89.7131V75.5722C175.233 75.3794 175.33 75.283 175.523 75.283H177.72C177.913 75.283 178.01 75.3794 178.01 75.5722V77.423C178.01 77.4808 178.019 77.5193 178.038 77.5386C178.077 77.5386 178.106 77.5193 178.125 77.4808C178.819 75.9192 179.88 75.1384 181.306 75.1384Z" fill="black"/>
<path d="M185.911 90.0022C185.371 90.0022 184.928 89.8287 184.581 89.4817C184.234 89.1347 184.06 88.6913 184.06 88.1515C184.06 87.6117 184.234 87.1683 184.581 86.8213C184.928 86.4743 185.371 86.3008 185.911 86.3008C186.451 86.3008 186.894 86.4743 187.241 86.8213C187.588 87.1683 187.762 87.6117 187.762 88.1515C187.762 88.6913 187.588 89.1347 187.241 89.4817C186.894 89.8287 186.451 90.0022 185.911 90.0022Z" fill="black"/>
<path d="M210.187 75.0806C211.537 75.0806 212.578 75.5144 213.31 76.3819C214.062 77.2494 214.438 78.4544 214.438 79.9966V89.7131C214.438 89.9059 214.342 90.0022 214.149 90.0022H211.98C211.787 90.0022 211.691 89.9059 211.691 89.7131V80.4015C211.691 79.4954 211.469 78.7821 211.026 78.2616C210.602 77.7411 210.014 77.4808 209.262 77.4808C208.51 77.4808 207.903 77.7411 207.44 78.2616C206.996 78.7628 206.775 79.4568 206.775 80.3437V89.7131C206.775 89.9059 206.678 90.0022 206.486 90.0022H204.317C204.124 90.0022 204.028 89.9059 204.028 89.7131V80.4015C204.028 79.4954 203.806 78.7821 203.362 78.2616C202.919 77.7411 202.331 77.4808 201.598 77.4808C200.847 77.4808 200.239 77.7411 199.777 78.2616C199.333 78.7628 199.112 79.4568 199.112 80.3437V89.7131C199.112 89.9059 199.015 90.0022 198.822 90.0022H196.653C196.461 90.0022 196.364 89.9059 196.364 89.7131V75.5722C196.364 75.3794 196.461 75.283 196.653 75.283H198.822C199.015 75.283 199.112 75.3794 199.112 75.5722V76.4397C199.112 76.4783 199.121 76.5072 199.14 76.5265C199.179 76.5458 199.218 76.5361 199.256 76.4976C200.047 75.5529 201.145 75.0806 202.553 75.0806C203.401 75.0806 204.134 75.2541 204.75 75.6011C205.367 75.9481 205.84 76.459 206.167 77.1338C206.225 77.2109 206.283 77.2013 206.341 77.1049C206.765 76.4108 207.315 75.8999 207.989 75.5722C208.683 75.2445 209.416 75.0806 210.187 75.0806Z" fill="black"/>
<path d="M222.803 87.8334C223.458 87.8334 224.008 87.6792 224.451 87.3707C224.914 87.043 225.261 86.5996 225.492 86.0405C225.55 85.867 225.666 85.7995 225.839 85.8381L227.806 86.2718C227.998 86.3297 228.066 86.4453 228.008 86.6189C227.642 87.7563 227.005 88.6431 226.099 89.2793C225.193 89.9155 224.085 90.2336 222.774 90.2336C221.27 90.2336 220.056 89.8577 219.13 89.1058C218.205 88.3539 217.617 87.3225 217.366 86.0116C217.27 85.4718 217.202 84.9031 217.164 84.3054C217.144 83.6885 217.135 82.8788 217.135 81.8763C217.135 80.8931 217.183 80.1123 217.279 79.534C217.453 78.1845 218.022 77.1049 218.986 76.2952C219.949 75.4662 221.164 75.0517 222.629 75.0517C224.229 75.0517 225.521 75.5047 226.504 76.4108C227.487 77.3169 228.037 78.5122 228.153 79.9966C228.21 80.6521 228.239 81.857 228.239 83.6114C228.239 83.8042 228.143 83.9006 227.95 83.9006H220.027C219.949 83.9006 219.911 83.9391 219.911 84.0162C219.911 84.556 219.94 85.0284 219.998 85.4332C220.094 86.1465 220.393 86.7249 220.894 87.1683C221.395 87.6117 222.032 87.8334 222.803 87.8334ZM222.658 77.4519C221.926 77.4519 221.318 77.6736 220.836 78.117C220.374 78.5604 220.094 79.1387 219.998 79.8521C219.94 80.3726 219.911 80.9413 219.911 81.5582C219.911 81.6353 219.949 81.6739 220.027 81.6739H225.348C225.425 81.6739 225.463 81.6353 225.463 81.5582C225.425 80.7871 225.386 80.228 225.348 79.881C225.251 79.1677 224.962 78.5893 224.48 78.1459C223.998 77.6832 223.391 77.4519 222.658 77.4519Z" fill="black"/>
<path d="M238.868 70.0489C238.868 69.8561 238.964 69.7597 239.157 69.7597H241.355C241.547 69.7597 241.644 69.8561 241.644 70.0489V89.7131C241.644 89.9059 241.547 90.0022 241.355 90.0022H239.157C238.964 90.0022 238.868 89.9059 238.868 89.7131V88.7299C238.868 88.6913 238.848 88.6624 238.81 88.6431C238.771 88.6238 238.742 88.6335 238.723 88.672C238.029 89.7131 236.94 90.2336 235.455 90.2336C234.26 90.2336 233.296 89.8866 232.564 89.1925C231.831 88.4985 231.291 87.4286 230.944 85.9827C230.713 84.9802 230.597 83.8813 230.597 82.686C230.597 81.4522 230.694 80.3533 230.886 79.3894C231.465 76.4976 233.036 75.0517 235.6 75.0517C236.352 75.0517 236.978 75.177 237.48 75.4276C237.981 75.6782 238.395 76.0542 238.723 76.5554C238.762 76.594 238.791 76.6133 238.81 76.6133C238.848 76.6133 238.868 76.5843 238.868 76.5265V70.0489ZM238.463 85.8959C238.714 85.1248 238.839 84.0355 238.839 82.6282C238.839 81.1823 238.704 80.0834 238.434 79.3315C238.26 78.7146 237.991 78.2519 237.624 77.9435C237.277 77.6157 236.815 77.4519 236.236 77.4519C235.099 77.4519 234.308 78.0591 233.865 79.2737C233.557 80.1412 233.402 81.2594 233.402 82.6282C233.402 84.0162 233.528 85.0862 233.778 85.8381C234.183 87.1683 234.993 87.8334 236.207 87.8334C237.325 87.8334 238.077 87.1876 238.463 85.8959Z" fill="black"/>
<path d="M246.565 90.0022C246.026 90.0022 245.582 89.8287 245.235 89.4817C244.888 89.1347 244.715 88.6913 244.715 88.1515C244.715 87.6117 244.888 87.1683 245.235 86.8213C245.582 86.4743 246.026 86.3008 246.565 86.3008C247.105 86.3008 247.549 86.4743 247.896 86.8213C248.243 87.1683 248.416 87.6117 248.416 88.1515C248.416 88.6913 248.243 89.1347 247.896 89.4817C247.549 89.8287 247.105 90.0022 246.565 90.0022Z" fill="black"/>
<path d="M268.904 71.8707C268.904 72.0635 268.807 72.1599 268.615 72.1599H260.228C260.151 72.1599 260.113 72.1985 260.113 72.2756V78.5218C260.113 78.5989 260.151 78.6375 260.228 78.6375H265.752C265.944 78.6375 266.041 78.7339 266.041 78.9267V80.7485C266.041 80.9413 265.944 81.0377 265.752 81.0377H260.228C260.151 81.0377 260.113 81.0763 260.113 81.1534V87.4864C260.113 87.5635 260.151 87.6021 260.228 87.6021H268.615C268.807 87.6021 268.904 87.6985 268.904 87.8912V89.7131C268.904 89.9059 268.807 90.0022 268.615 90.0022H257.626C257.433 90.0022 257.337 89.9059 257.337 89.7131V70.0489C257.337 69.8561 257.433 69.7597 257.626 69.7597H268.615C268.807 69.7597 268.904 69.8561 268.904 70.0489V71.8707Z" fill="black"/>
<path d="M285.435 75.0806C286.784 75.0806 287.825 75.5144 288.558 76.3819C289.31 77.2494 289.686 78.4544 289.686 79.9966V89.7131C289.686 89.9059 289.589 90.0022 289.396 90.0022H287.228C287.035 90.0022 286.938 89.9059 286.938 89.7131V80.4015C286.938 79.4954 286.717 78.7821 286.273 78.2616C285.849 77.7411 285.261 77.4808 284.509 77.4808C283.757 77.4808 283.15 77.7411 282.687 78.2616C282.244 78.7628 282.022 79.4568 282.022 80.3437V89.7131C282.022 89.9059 281.926 90.0022 281.733 90.0022H279.564C279.372 90.0022 279.275 89.9059 279.275 89.7131V80.4015C279.275 79.4954 279.053 78.7821 278.61 78.2616C278.167 77.7411 277.579 77.4808 276.846 77.4808C276.094 77.4808 275.487 77.7411 275.024 78.2616C274.581 78.7628 274.359 79.4568 274.359 80.3437V89.7131C274.359 89.9059 274.263 90.0022 274.07 90.0022H271.901C271.708 90.0022 271.612 89.9059 271.612 89.7131V75.5722C271.612 75.3794 271.708 75.283 271.901 75.283H274.07C274.263 75.283 274.359 75.3794 274.359 75.5722V76.4397C274.359 76.4783 274.369 76.5072 274.388 76.5265C274.427 76.5458 274.465 76.5361 274.504 76.4976C275.294 75.5529 276.393 75.0806 277.8 75.0806C278.649 75.0806 279.381 75.2541 279.998 75.6011C280.615 75.9481 281.087 76.459 281.415 77.1338C281.473 77.2109 281.531 77.2013 281.589 77.1049C282.013 76.4108 282.562 75.8999 283.237 75.5722C283.931 75.2445 284.664 75.0806 285.435 75.0806Z" fill="black"/>
<path d="M294.405 72.9696C293.865 72.9696 293.421 72.7961 293.074 72.4491C292.727 72.1021 292.554 71.6586 292.554 71.1188C292.554 70.5598 292.727 70.1164 293.074 69.7886C293.421 69.4416 293.865 69.2681 294.405 69.2681C294.944 69.2681 295.388 69.4416 295.735 69.7886C296.082 70.1356 296.255 70.579 296.255 71.1188C296.255 71.6586 296.072 72.1021 295.706 72.4491C295.359 72.7961 294.925 72.9696 294.405 72.9696ZM293.277 90.0022C293.084 90.0022 292.988 89.9059 292.988 89.7131V75.5722C292.988 75.3794 293.084 75.283 293.277 75.283H295.475C295.667 75.283 295.764 75.3794 295.764 75.5722V89.7131C295.764 89.9059 295.667 90.0022 295.475 90.0022H293.277Z" fill="black"/>
<path d="M299.477 90.0022C299.284 90.0022 299.188 89.9059 299.188 89.7131V70.0489C299.188 69.8561 299.284 69.7597 299.477 69.7597H301.675C301.867 69.7597 301.964 69.8561 301.964 70.0489V89.7131C301.964 89.9059 301.867 90.0022 301.675 90.0022H299.477Z" fill="black"/>
<path d="M304.766 95.7569C304.631 95.7569 304.563 95.6605 304.563 95.4677V93.7616C304.563 93.5688 304.66 93.4724 304.852 93.4724H304.881C305.575 93.4531 306.115 93.3567 306.501 93.1832C306.906 93.0097 307.233 92.682 307.484 92.2C307.734 91.7373 307.966 91.0337 308.178 90.089C308.197 90.0697 308.197 90.0408 308.178 90.0022C308.178 89.9444 308.178 89.9155 308.178 89.9155L303.927 75.6011L303.898 75.5144C303.898 75.3601 303.994 75.283 304.187 75.283H306.53C306.722 75.283 306.828 75.3698 306.848 75.5433L309.566 86.214C309.585 86.2526 309.605 86.2815 309.624 86.3008C309.643 86.3008 309.662 86.2718 309.682 86.214L312.371 75.5433C312.41 75.3698 312.516 75.283 312.689 75.283L315.003 75.3119C315.099 75.3119 315.166 75.3409 315.205 75.3987C315.263 75.4565 315.282 75.5336 315.263 75.63L310.665 91.0144C310.26 92.3446 309.855 93.3278 309.45 93.964C309.045 94.6195 308.496 95.0822 307.802 95.3521C307.127 95.622 306.173 95.7569 304.939 95.7569H304.766Z" fill="black"/>
<path d="M328.763 90.2336C326.931 90.2336 325.456 89.7034 324.338 88.6431C323.22 87.5635 322.661 86.1465 322.661 84.3922V75.3698C322.661 73.6154 323.22 72.2081 324.338 71.1478C325.456 70.0682 326.931 69.5284 328.763 69.5284C329.977 69.5284 331.047 69.7693 331.973 70.2513C332.898 70.714 333.611 71.3791 334.113 72.2466C334.633 73.1142 334.893 74.0974 334.893 75.1963V75.9771C334.893 76.1698 334.797 76.2662 334.604 76.2662H332.406C332.214 76.2662 332.117 76.1698 332.117 75.9771V75.1963C332.117 74.2323 331.809 73.4516 331.192 72.8539C330.594 72.237 329.784 71.9286 328.763 71.9286C327.76 71.9286 326.951 72.2466 326.334 72.8828C325.717 73.4998 325.408 74.3095 325.408 75.3119V84.45C325.408 85.4525 325.717 86.2718 326.334 86.908C326.97 87.5249 327.799 87.8334 328.821 87.8334C329.823 87.8334 330.623 87.5442 331.221 86.9659C331.818 86.3875 332.117 85.6067 332.117 84.6235V81.9342C332.117 81.857 332.079 81.8185 332.002 81.8185H328.965C328.772 81.8185 328.676 81.7221 328.676 81.5293V79.7364C328.676 79.5436 328.772 79.4472 328.965 79.4472H334.604C334.797 79.4472 334.893 79.5436 334.893 79.7364V84.2476C334.893 86.1176 334.334 87.5828 333.216 88.6431C332.117 89.7034 330.633 90.2336 328.763 90.2336Z" fill="black"/>
<path d="M345.713 75.5722C345.713 75.3794 345.81 75.283 346.002 75.283H348.2C348.393 75.283 348.489 75.3794 348.489 75.5722V89.7131C348.489 89.9059 348.393 90.0022 348.2 90.0022H346.002C345.81 90.0022 345.713 89.9059 345.713 89.7131V88.8166C345.713 88.7781 345.694 88.7491 345.655 88.7299C345.636 88.7106 345.607 88.7202 345.569 88.7588C344.894 89.7227 343.833 90.2047 342.388 90.2047C341.077 90.2047 339.987 89.8191 339.12 89.048C338.272 88.2768 337.847 87.1587 337.847 85.6935V75.5722C337.847 75.3794 337.944 75.283 338.137 75.283H340.305C340.498 75.283 340.595 75.3794 340.595 75.5722V84.9416C340.595 85.8477 340.807 86.5514 341.231 87.0526C341.674 87.5539 342.301 87.8045 343.111 87.8045C343.901 87.8045 344.527 87.5442 344.99 87.0237C345.472 86.4839 345.713 85.761 345.713 84.8549V75.5722ZM345.684 72.9118C345.144 72.9118 344.701 72.7383 344.354 72.3912C344.007 72.0442 343.833 71.6008 343.833 71.061C343.833 70.5212 344.007 70.0778 344.354 69.7308C344.701 69.3838 345.144 69.2103 345.684 69.2103C346.224 69.2103 346.667 69.3838 347.014 69.7308C347.361 70.0778 347.535 70.5212 347.535 71.061C347.535 71.6008 347.361 72.0442 347.014 72.3912C346.667 72.7383 346.224 72.9118 345.684 72.9118ZM340.71 72.9118C340.171 72.9118 339.727 72.7383 339.38 72.3912C339.033 72.0442 338.86 71.6008 338.86 71.061C338.86 70.5212 339.033 70.0778 339.38 69.7308C339.727 69.3838 340.171 69.2103 340.71 69.2103C341.25 69.2103 341.694 69.3838 342.041 69.7308C342.388 70.0778 342.561 70.5212 342.561 71.061C342.561 71.6008 342.388 72.0442 342.041 72.3912C341.694 72.7383 341.25 72.9118 340.71 72.9118Z" fill="black"/>
<path d="M358.012 75.0806C359.419 75.0806 360.509 75.5144 361.28 76.3819C362.07 77.2494 362.465 78.4447 362.465 79.9677V89.7131C362.465 89.9059 362.369 90.0022 362.176 90.0022H359.978C359.786 90.0022 359.689 89.9059 359.689 89.7131V80.3726C359.689 79.4858 359.458 78.7821 358.995 78.2616C358.552 77.7411 357.945 77.4808 357.173 77.4808C356.383 77.4808 355.747 77.7507 355.265 78.2905C354.802 78.811 354.571 79.5147 354.571 80.4015V89.7131C354.571 89.9059 354.474 90.0022 354.282 90.0022H352.084C351.891 90.0022 351.795 89.9059 351.795 89.7131V75.5722C351.795 75.3794 351.891 75.283 352.084 75.283H354.282C354.474 75.283 354.571 75.3794 354.571 75.5722V76.4687C354.571 76.5265 354.58 76.5651 354.6 76.5843C354.638 76.5843 354.677 76.5554 354.715 76.4976C355.467 75.5529 356.566 75.0806 358.012 75.0806Z" fill="black"/>
<path d="M372.104 77.1338C372.104 77.3266 372.008 77.423 371.815 77.423H369.241C369.164 77.423 369.125 77.4615 369.125 77.5386V85.4621C369.125 86.2526 369.28 86.8116 369.588 87.1394C369.916 87.4478 370.417 87.6021 371.092 87.6021H371.641C371.834 87.6021 371.93 87.6985 371.93 87.8912V89.7131C371.93 89.9059 371.834 90.0022 371.641 90.0022L370.513 90.0312C369.164 90.0312 368.142 89.7805 367.448 89.2793C366.773 88.7588 366.436 87.8045 366.436 86.4164V77.5386C366.436 77.4615 366.397 77.423 366.32 77.423H364.903C364.711 77.423 364.614 77.3266 364.614 77.1338V75.5722C364.614 75.3794 364.711 75.283 364.903 75.283H366.32C366.397 75.283 366.436 75.2445 366.436 75.1674V71.8418C366.436 71.649 366.532 71.5526 366.725 71.5526H368.836C369.029 71.5526 369.125 71.649 369.125 71.8418V75.1674C369.125 75.2445 369.164 75.283 369.241 75.283H371.815C372.008 75.283 372.104 75.3794 372.104 75.5722V77.1338Z" fill="black"/>
<path d="M380.845 75.0806C382.252 75.0806 383.341 75.5144 384.113 76.3819C384.903 77.2494 385.298 78.4447 385.298 79.9677V89.7131C385.298 89.9059 385.202 90.0022 385.009 90.0022H382.811C382.618 90.0022 382.522 89.9059 382.522 89.7131V80.3726C382.522 79.4858 382.291 78.7821 381.828 78.2616C381.385 77.7411 380.777 77.4808 380.006 77.4808C379.216 77.4808 378.58 77.7507 378.098 78.2905C377.635 78.811 377.404 79.5147 377.404 80.4015V89.7131C377.404 89.9059 377.307 90.0022 377.114 90.0022H374.917C374.724 90.0022 374.627 89.9059 374.627 89.7131V70.0489C374.627 69.8561 374.724 69.7597 374.917 69.7597H377.114C377.307 69.7597 377.404 69.8561 377.404 70.0489V76.4687C377.404 76.5265 377.413 76.5651 377.432 76.5843C377.471 76.5843 377.51 76.5554 377.548 76.4976C378.3 75.5529 379.399 75.0806 380.845 75.0806Z" fill="black"/>
<path d="M393.695 87.8334C394.351 87.8334 394.9 87.6792 395.344 87.3707C395.806 87.043 396.153 86.5996 396.385 86.0405C396.442 85.867 396.558 85.7995 396.732 85.8381L398.698 86.2718C398.891 86.3297 398.958 86.4453 398.9 86.6189C398.534 87.7563 397.898 88.6431 396.992 89.2793C396.086 89.9155 394.977 90.2336 393.666 90.2336C392.163 90.2336 390.948 89.8577 390.023 89.1058C389.097 88.3539 388.509 87.3225 388.259 86.0116C388.162 85.4718 388.095 84.9031 388.056 84.3054C388.037 83.6885 388.027 82.8788 388.027 81.8763C388.027 80.8931 388.075 80.1123 388.172 79.534C388.345 78.1845 388.914 77.1049 389.878 76.2952C390.842 75.4662 392.057 75.0517 393.522 75.0517C395.122 75.0517 396.413 75.5047 397.397 76.4108C398.38 77.3169 398.929 78.5122 399.045 79.9966C399.103 80.6521 399.132 81.857 399.132 83.6114C399.132 83.8042 399.035 83.9006 398.843 83.9006H390.919C390.842 83.9006 390.803 83.9391 390.803 84.0162C390.803 84.556 390.832 85.0284 390.89 85.4332C390.987 86.1465 391.285 86.7249 391.787 87.1683C392.288 87.6117 392.924 87.8334 393.695 87.8334ZM393.551 77.4519C392.818 77.4519 392.211 77.6736 391.729 78.117C391.266 78.5604 390.987 79.1387 390.89 79.8521C390.832 80.3726 390.803 80.9413 390.803 81.5582C390.803 81.6353 390.842 81.6739 390.919 81.6739H396.24C396.317 81.6739 396.356 81.6353 396.356 81.5582C396.317 80.7871 396.279 80.228 396.24 79.881C396.144 79.1677 395.854 78.5893 395.372 78.1459C394.89 77.6832 394.283 77.4519 393.551 77.4519Z" fill="black"/>
<path d="M407.967 75.1384C408.546 75.1384 409.037 75.2541 409.442 75.4855C409.577 75.5433 409.625 75.659 409.587 75.8325L409.153 78.0302C409.134 78.223 409.018 78.2809 408.806 78.2037C408.517 78.1073 408.199 78.0591 407.852 78.0591C407.601 78.0591 407.418 78.0688 407.302 78.0881C406.55 78.1459 405.924 78.4929 405.423 79.1291C404.921 79.746 404.671 80.4883 404.671 81.3558V89.7131C404.671 89.9059 404.574 90.0022 404.381 90.0022H402.184C401.991 90.0022 401.895 89.9059 401.895 89.7131V75.5722C401.895 75.3794 401.991 75.283 402.184 75.283H404.381C404.574 75.283 404.671 75.3794 404.671 75.5722V77.423C404.671 77.4808 404.68 77.5193 404.7 77.5386C404.738 77.5386 404.767 77.5193 404.786 77.4808C405.48 75.9192 406.541 75.1384 407.967 75.1384Z" fill="black"/>
<path d="M107.804 24.0866C109.222 22.4875 109.012 20.0275 107.61 18.4991C103.944 14.5013 94.7864 9.23693 89.7276 7.13307C46.3133 -10.9219 -1.90031 20.8152 1.80171 68.5153C3.51941 90.6365 17.6338 110.991 37.7224 120.246C40.4806 111.932 45.3294 104.01 52.6225 98.9717C59.5924 94.1578 68.0417 92.1648 74.4972 86.6316C74.5656 86.3226 72.4492 85.1079 72.0552 84.8178C68.3626 82.1031 65.5642 79.2563 62.8036 75.5981C60.7533 72.881 59.5169 70.105 56.3741 68.3455C47.2193 63.2226 40.4334 73.5579 36.2855 80.2469C32.3192 86.6481 29.0348 93.4738 25.5805 100.158C25.4224 100.271 24.297 99.0637 24.1247 98.875C17.0652 91.153 11.1759 77.1052 10.6899 66.6473C8.71734 24.0913 54.3402 -2.61732 91.2141 17.7892C94.7816 19.7633 97.6673 22.4615 100.966 24.4569C102.962 25.6645 106.105 26.0018 107.804 24.0866ZM77.6919 54.4534C77.6919 47.479 72.0363 41.8255 65.0593 41.8255C58.0823 41.8255 52.4267 47.479 52.4267 54.4534C52.4267 61.4277 58.0823 67.0813 65.0593 67.0813C72.0363 67.0813 77.6919 61.4277 77.6919 54.4534ZM124.917 50.4461C124.249 47.446 123.357 44.3115 121.977 41.5873L91.5279 41.5897C91.0419 41.5897 91.6011 42.8539 91.7025 43.1251C93.5901 48.1277 99.4699 50.8141 104.531 51.1632C106.239 51.2811 114.986 50.7999 115.748 51.7882C117.605 58.121 117.223 65.7722 115.826 72.2041C111.926 90.1624 96.4309 101.915 78.9543 105.201C82.1986 101.422 85.5089 97.7759 88.3308 93.6271C90.3576 90.6482 94.3215 84.4287 93.0168 80.7988C92.2664 78.7138 89.9117 78.1831 88.0099 79.1124C86.1082 80.0417 82.6964 84.7966 80.9268 86.5726C74.811 92.7097 68.943 94.8465 61.4422 98.5566C51.9005 103.276 46.5822 108.75 42.6065 118.715C42.4178 119.187 41.3159 121.949 41.4881 122.128C43.8641 122.558 46.0867 123.56 48.4297 124.168C92.8587 135.723 134.909 95.2923 124.917 50.4461Z" fill="url(#paint0_linear_44_136)"/>
<defs>
<linearGradient id="paint0_linear_44_136" x1="1.60116" y1="64.0835" x2="126.403" y2="64.0835" gradientUnits="userSpaceOnUse">
<stop stop-color="#A2C01F"/>
<stop offset="0.08" stop-color="#87B524"/>
<stop offset="0.22" stop-color="#5EA52B"/>
<stop offset="0.37" stop-color="#3C9832"/>
<stop offset="0.52" stop-color="#218E37"/>
<stop offset="0.67" stop-color="#0E863B"/>
<stop offset="0.83" stop-color="#03823D"/>
<stop offset="1" stop-color="#00813E"/>
</linearGradient>
</defs>
</svg>
