<svg width="236" height="70" viewBox="0 0 236 70" fill="none" xmlns="http://www.w3.org/2000/svg">
<path d="M95.7401 22.34C95.7401 22.2467 95.7868 22.2 95.8801 22.2H96.5941C96.6875 22.2 96.7341 22.2467 96.7341 22.34V31.86C96.7341 31.9533 96.6875 32 96.5941 32H95.8801C95.7868 32 95.7401 31.9533 95.7401 31.86V27.576C95.7401 27.5387 95.7215 27.52 95.6841 27.52H92.2121C92.1748 27.52 92.1561 27.5387 92.1561 27.576V31.86C92.1561 31.9533 92.1095 32 92.0161 32H91.3021C91.2088 32 91.1621 31.9533 91.1621 31.86V22.34C91.1621 22.2467 91.2088 22.2 91.3021 22.2H92.0161C92.1095 22.2 92.1561 22.2467 92.1561 22.34V26.596C92.1561 26.6333 92.1748 26.652 92.2121 26.652H95.6841C95.7215 26.652 95.7401 26.6333 95.7401 26.596V22.34Z" fill="white"/>
<path d="M101.137 24.804C101.883 24.804 102.467 25.0187 102.887 25.448C103.316 25.8773 103.531 26.4467 103.531 27.156V31.86C103.531 31.9533 103.484 32 103.391 32H102.677C102.583 32 102.537 31.9533 102.537 31.86V31.356C102.537 31.3373 102.527 31.3233 102.509 31.314C102.499 31.3047 102.485 31.3093 102.467 31.328C102.261 31.5893 102 31.7853 101.683 31.916C101.365 32.0467 101.011 32.112 100.619 32.112C100.031 32.112 99.5268 31.9533 99.1068 31.636C98.6961 31.3187 98.4908 30.8007 98.4908 30.082C98.4908 29.3353 98.7288 28.7707 99.2048 28.388C99.6902 27.996 100.348 27.8 101.179 27.8H102.481C102.518 27.8 102.537 27.7813 102.537 27.744V27.212C102.537 26.736 102.415 26.3627 102.173 26.092C101.939 25.812 101.589 25.672 101.123 25.672C100.759 25.672 100.455 25.7653 100.213 25.952C99.9701 26.1293 99.8255 26.3673 99.7788 26.666C99.7695 26.75 99.7182 26.792 99.6248 26.792L98.8548 26.75C98.8081 26.75 98.7708 26.736 98.7428 26.708C98.7241 26.68 98.7195 26.6473 98.7288 26.61C98.7941 26.0687 99.0462 25.6347 99.4848 25.308C99.9328 24.972 100.483 24.804 101.137 24.804ZM100.815 31.244C101.281 31.244 101.683 31.118 102.019 30.866C102.364 30.6047 102.537 30.2453 102.537 29.788V28.654C102.537 28.6167 102.518 28.598 102.481 28.598H101.249C100.717 28.598 100.292 28.724 99.9748 28.976C99.6575 29.2187 99.4988 29.5687 99.4988 30.026C99.4988 30.4367 99.6202 30.7447 99.8628 30.95C100.105 31.146 100.423 31.244 100.815 31.244Z" fill="white"/>
<path d="M109.102 25.056C109.102 24.9627 109.148 24.916 109.242 24.916H109.956C110.049 24.916 110.096 24.9627 110.096 25.056V31.86C110.096 31.9533 110.049 32 109.956 32H109.242C109.148 32 109.102 31.9533 109.102 31.86V31.314C109.102 31.286 109.092 31.272 109.074 31.272C109.064 31.272 109.05 31.2813 109.032 31.3C108.705 31.832 108.164 32.098 107.408 32.098C106.773 32.098 106.255 31.9113 105.854 31.538C105.452 31.1647 105.252 30.6233 105.252 29.914V25.056C105.252 24.9627 105.298 24.916 105.392 24.916H106.106C106.199 24.916 106.246 24.9627 106.246 25.056V29.662C106.246 30.1567 106.367 30.544 106.61 30.824C106.852 31.0947 107.193 31.23 107.632 31.23C108.089 31.23 108.448 31.0853 108.71 30.796C108.971 30.4973 109.102 30.1007 109.102 29.606V25.056Z" fill="white"/>
<path d="M114.148 32.07C113.43 32.07 112.851 31.8973 112.412 31.552C111.974 31.2067 111.754 30.7633 111.754 30.222V30.096C111.754 30.0027 111.801 29.956 111.894 29.956H112.58C112.674 29.956 112.72 30.0027 112.72 30.096V30.194C112.72 30.4927 112.851 30.754 113.112 30.978C113.383 31.1927 113.728 31.3 114.148 31.3C114.559 31.3 114.89 31.1927 115.142 30.978C115.394 30.7633 115.52 30.4927 115.52 30.166C115.52 29.9327 115.45 29.7367 115.31 29.578C115.17 29.4193 114.998 29.2933 114.792 29.2C114.587 29.1067 114.302 28.9993 113.938 28.878C113.5 28.7287 113.136 28.5793 112.846 28.43C112.557 28.2807 112.31 28.0753 112.104 27.814C111.908 27.5433 111.81 27.2027 111.81 26.792C111.81 26.1947 112.02 25.7233 112.44 25.378C112.86 25.0233 113.416 24.846 114.106 24.846C114.816 24.846 115.38 25.028 115.8 25.392C116.23 25.756 116.444 26.2227 116.444 26.792V26.82C116.444 26.9133 116.398 26.96 116.304 26.96H115.66C115.567 26.96 115.52 26.9133 115.52 26.82V26.764C115.52 26.4467 115.39 26.1853 115.128 25.98C114.876 25.7653 114.536 25.658 114.106 25.658C113.705 25.658 113.378 25.7607 113.126 25.966C112.884 26.162 112.762 26.4187 112.762 26.736C112.762 27.0627 112.884 27.31 113.126 27.478C113.378 27.646 113.77 27.8233 114.302 28.01C114.76 28.1593 115.138 28.3087 115.436 28.458C115.735 28.6073 115.987 28.8173 116.192 29.088C116.407 29.3493 116.514 29.69 116.514 30.11C116.514 30.7073 116.3 31.1833 115.87 31.538C115.441 31.8927 114.867 32.07 114.148 32.07Z" fill="white"/>
<path d="M120.318 24.804C121.065 24.804 121.648 25.0187 122.068 25.448C122.498 25.8773 122.712 26.4467 122.712 27.156V31.86C122.712 31.9533 122.666 32 122.572 32H121.858C121.765 32 121.718 31.9533 121.718 31.86V31.356C121.718 31.3373 121.709 31.3233 121.69 31.314C121.681 31.3047 121.667 31.3093 121.648 31.328C121.443 31.5893 121.182 31.7853 120.864 31.916C120.547 32.0467 120.192 32.112 119.8 32.112C119.212 32.112 118.708 31.9533 118.288 31.636C117.878 31.3187 117.672 30.8007 117.672 30.082C117.672 29.3353 117.91 28.7707 118.386 28.388C118.872 27.996 119.53 27.8 120.36 27.8H121.662C121.7 27.8 121.718 27.7813 121.718 27.744V27.212C121.718 26.736 121.597 26.3627 121.354 26.092C121.121 25.812 120.771 25.672 120.304 25.672C119.94 25.672 119.637 25.7653 119.394 25.952C119.152 26.1293 119.007 26.3673 118.96 26.666C118.951 26.75 118.9 26.792 118.806 26.792L118.036 26.75C117.99 26.75 117.952 26.736 117.924 26.708C117.906 26.68 117.901 26.6473 117.91 26.61C117.976 26.0687 118.228 25.6347 118.666 25.308C119.114 24.972 119.665 24.804 120.318 24.804ZM119.996 31.244C120.463 31.244 120.864 31.118 121.2 30.866C121.546 30.6047 121.718 30.2453 121.718 29.788V28.654C121.718 28.6167 121.7 28.598 121.662 28.598H120.43C119.898 28.598 119.474 28.724 119.156 28.976C118.839 29.2187 118.68 29.5687 118.68 30.026C118.68 30.4367 118.802 30.7447 119.044 30.95C119.287 31.146 119.604 31.244 119.996 31.244ZM121.424 23.614C121.191 23.614 121 23.5393 120.85 23.39C120.71 23.2407 120.64 23.054 120.64 22.83C120.64 22.5967 120.71 22.41 120.85 22.27C121 22.1207 121.191 22.046 121.424 22.046C121.648 22.046 121.835 22.1207 121.984 22.27C122.134 22.41 122.208 22.5967 122.208 22.83C122.208 23.054 122.134 23.2407 121.984 23.39C121.835 23.5393 121.648 23.614 121.424 23.614ZM119.184 23.614C118.951 23.614 118.76 23.5393 118.61 23.39C118.47 23.2407 118.4 23.054 118.4 22.83C118.4 22.5967 118.47 22.41 118.61 22.27C118.76 22.1207 118.951 22.046 119.184 22.046C119.408 22.046 119.595 22.1207 119.744 22.27C119.894 22.41 119.968 22.5967 119.968 22.83C119.968 23.054 119.894 23.2407 119.744 23.39C119.595 23.5393 119.408 23.614 119.184 23.614Z" fill="white"/>
<path d="M127.136 24.846C127.416 24.846 127.654 24.902 127.85 25.014C127.915 25.042 127.938 25.098 127.92 25.182L127.752 25.91C127.742 26.0033 127.686 26.0313 127.584 25.994C127.434 25.9287 127.271 25.896 127.094 25.896L126.926 25.91C126.515 25.9193 126.174 26.0967 125.904 26.442C125.633 26.7873 125.498 27.2073 125.498 27.702V31.86C125.498 31.9533 125.451 32 125.358 32H124.644C124.55 32 124.504 31.9533 124.504 31.86V25.056C124.504 24.9627 124.55 24.916 124.644 24.916H125.358C125.451 24.916 125.498 24.9627 125.498 25.056V25.966C125.498 25.994 125.502 26.008 125.512 26.008C125.53 26.008 125.544 25.9987 125.554 25.98C125.712 25.6253 125.922 25.35 126.184 25.154C126.454 24.9487 126.772 24.846 127.136 24.846Z" fill="white"/>
<path d="M128.747 32C128.653 32 128.607 31.9533 128.607 31.86V31.188C128.607 31.1133 128.625 31.0527 128.663 31.006L132.093 25.896C132.102 25.8867 132.102 25.8727 132.093 25.854C132.083 25.8353 132.069 25.826 132.051 25.826H128.803C128.709 25.826 128.663 25.7793 128.663 25.686V25.056C128.663 24.9627 128.709 24.916 128.803 24.916H133.157C133.25 24.916 133.297 24.9627 133.297 25.056V25.728C133.297 25.8027 133.278 25.8633 133.241 25.91L129.783 31.02C129.773 31.0293 129.773 31.0433 129.783 31.062C129.792 31.0807 129.806 31.09 129.825 31.09H133.171C133.264 31.09 133.311 31.1367 133.311 31.23V31.86C133.311 31.9533 133.264 32 133.171 32H128.747Z" fill="white"/>
<path d="M137.613 25.56C137.613 25.6533 137.566 25.7 137.473 25.7H136.143C136.106 25.7 136.087 25.7187 136.087 25.756V29.956C136.087 30.3947 136.171 30.7027 136.339 30.88C136.516 31.048 136.796 31.132 137.179 31.132H137.417C137.51 31.132 137.557 31.1787 137.557 31.272V31.86C137.557 31.9533 137.51 32 137.417 32L136.983 32.014C136.376 32.014 135.914 31.8927 135.597 31.65C135.28 31.398 135.121 30.936 135.121 30.264V25.756C135.121 25.7187 135.102 25.7 135.065 25.7H134.365C134.272 25.7 134.225 25.6533 134.225 25.56V25.056C134.225 24.9627 134.272 24.916 134.365 24.916H135.065C135.102 24.916 135.121 24.8973 135.121 24.86V23.264C135.121 23.1707 135.168 23.124 135.261 23.124H135.947C136.04 23.124 136.087 23.1707 136.087 23.264V24.86C136.087 24.8973 136.106 24.916 136.143 24.916H137.473C137.566 24.916 137.613 24.9627 137.613 25.056V25.56Z" fill="white"/>
<path d="M139.285 32C139.192 32 139.145 31.9533 139.145 31.86V22.34C139.145 22.2467 139.192 22.2 139.285 22.2H139.999C140.093 22.2 140.139 22.2467 140.139 22.34V31.86C140.139 31.9533 140.093 32 139.999 32H139.285Z" fill="white"/>
<path d="M142.716 23.628C142.483 23.628 142.291 23.5533 142.142 23.404C142.002 23.2547 141.932 23.068 141.932 22.844C141.932 22.6107 142.002 22.424 142.142 22.284C142.291 22.1347 142.483 22.06 142.716 22.06C142.94 22.06 143.127 22.1347 143.276 22.284C143.425 22.424 143.5 22.6107 143.5 22.844C143.5 23.068 143.425 23.2547 143.276 23.404C143.127 23.5533 142.94 23.628 142.716 23.628ZM142.338 32C142.245 32 142.198 31.9533 142.198 31.86V25.056C142.198 24.9627 142.245 24.916 142.338 24.916H143.052C143.145 24.916 143.192 24.9627 143.192 25.056V31.86C143.192 31.9533 143.145 32 143.052 32H142.338Z" fill="white"/>
<path d="M147.692 32.112C147.02 32.112 146.465 31.93 146.026 31.566C145.587 31.1927 145.321 30.6933 145.228 30.068C145.172 29.592 145.144 29.0507 145.144 28.444C145.144 27.968 145.172 27.4313 145.228 26.834C145.312 26.2273 145.578 25.7373 146.026 25.364C146.474 24.9907 147.029 24.804 147.692 24.804C148.355 24.804 148.91 24.9813 149.358 25.336C149.815 25.6907 150.081 26.134 150.156 26.666L150.198 26.96V26.988C150.198 27.0253 150.184 27.058 150.156 27.086C150.137 27.1047 150.109 27.114 150.072 27.114L149.358 27.156C149.274 27.156 149.223 27.114 149.204 27.03C149.204 26.946 149.199 26.89 149.19 26.862C149.143 26.5353 148.98 26.2553 148.7 26.022C148.429 25.7887 148.093 25.672 147.692 25.672C147.281 25.672 146.941 25.798 146.67 26.05C146.409 26.302 146.255 26.6287 146.208 27.03C146.161 27.4313 146.138 27.9073 146.138 28.458C146.138 29.018 146.161 29.4987 146.208 29.9C146.255 30.3107 146.409 30.6373 146.67 30.88C146.941 31.1227 147.281 31.244 147.692 31.244C148.103 31.244 148.443 31.1273 148.714 30.894C148.994 30.6607 149.153 30.376 149.19 30.04L149.204 29.928C149.223 29.8253 149.274 29.7833 149.358 29.802L150.058 29.858C150.142 29.8767 150.184 29.9187 150.184 29.984V30.04C150.184 30.0773 150.175 30.1333 150.156 30.208C150.091 30.7587 149.829 31.216 149.372 31.58C148.924 31.9347 148.364 32.112 147.692 32.112Z" fill="white"/>
<path d="M154.523 24.818C155.176 24.818 155.69 25.028 156.063 25.448C156.446 25.8587 156.637 26.4233 156.637 27.142V31.86C156.637 31.9533 156.59 32 156.497 32H155.783C155.69 32 155.643 31.9533 155.643 31.86V27.282C155.643 26.7967 155.517 26.4093 155.265 26.12C155.013 25.8307 154.668 25.686 154.229 25.686C153.79 25.686 153.436 25.8353 153.165 26.134C152.904 26.4233 152.773 26.8153 152.773 27.31V31.86C152.773 31.9533 152.726 32 152.633 32H151.919C151.826 32 151.779 31.9533 151.779 31.86V22.34C151.779 22.2467 151.826 22.2 151.919 22.2H152.633C152.726 22.2 152.773 22.2467 152.773 22.34V25.602C152.773 25.6207 152.778 25.6347 152.787 25.644C152.806 25.6533 152.824 25.6487 152.843 25.63C153.207 25.0887 153.767 24.818 154.523 24.818Z" fill="white"/>
<path d="M160.872 31.244C161.227 31.244 161.53 31.1553 161.782 30.978C162.044 30.7913 162.23 30.544 162.342 30.236C162.37 30.152 162.426 30.1193 162.51 30.138L163.154 30.264C163.201 30.2733 163.229 30.2967 163.238 30.334C163.257 30.362 163.262 30.3947 163.252 30.432C163.094 30.9547 162.804 31.3653 162.384 31.664C161.964 31.9627 161.456 32.112 160.858 32.112C160.177 32.112 159.622 31.9347 159.192 31.58C158.763 31.216 158.497 30.726 158.394 30.11C158.357 29.8767 158.334 29.6013 158.324 29.284C158.315 28.9667 158.31 28.7053 158.31 28.5C158.31 28.2853 158.31 28.136 158.31 28.052C158.31 27.576 158.329 27.1887 158.366 26.89C158.441 26.2647 158.698 25.7607 159.136 25.378C159.584 24.9953 160.144 24.804 160.816 24.804C161.535 24.804 162.118 25.0093 162.566 25.42C163.014 25.8307 163.266 26.372 163.322 27.044C163.35 27.352 163.364 27.9167 163.364 28.738C163.364 28.8313 163.318 28.878 163.224 28.878H159.36C159.323 28.878 159.304 28.8967 159.304 28.934C159.304 29.2233 159.314 29.5453 159.332 29.9C159.379 30.3013 159.538 30.628 159.808 30.88C160.088 31.1227 160.443 31.244 160.872 31.244ZM160.83 25.672C160.41 25.672 160.065 25.798 159.794 26.05C159.533 26.2927 159.379 26.6147 159.332 27.016C159.314 27.408 159.304 27.7347 159.304 27.996C159.304 28.0333 159.323 28.052 159.36 28.052H162.314C162.352 28.052 162.37 28.0333 162.37 27.996C162.37 27.7253 162.352 27.4033 162.314 27.03C162.268 26.6287 162.109 26.302 161.838 26.05C161.577 25.798 161.241 25.672 160.83 25.672Z" fill="white"/>
<path d="M171.119 22.186C171.866 22.186 172.468 22.438 172.925 22.942C173.392 23.4367 173.625 24.0947 173.625 24.916C173.625 25.728 173.392 26.3813 172.925 26.876C172.468 27.3613 171.866 27.604 171.119 27.604H169.033C168.996 27.604 168.977 27.6227 168.977 27.66V31.86C168.977 31.9533 168.93 32 168.837 32H168.123C168.03 32 167.983 31.9533 167.983 31.86V22.326C167.983 22.2327 168.03 22.186 168.123 22.186H171.119ZM170.993 26.778C171.488 26.778 171.884 26.61 172.183 26.274C172.482 25.938 172.631 25.49 172.631 24.93C172.631 24.3607 172.482 23.908 172.183 23.572C171.884 23.2267 171.488 23.054 170.993 23.054H169.033C168.996 23.054 168.977 23.0727 168.977 23.11V26.722C168.977 26.7593 168.996 26.778 169.033 26.778H170.993Z" fill="white"/>
<path d="M177.722 24.846C178.002 24.846 178.24 24.902 178.436 25.014C178.501 25.042 178.524 25.098 178.506 25.182L178.338 25.91C178.328 26.0033 178.272 26.0313 178.17 25.994C178.02 25.9287 177.857 25.896 177.68 25.896L177.512 25.91C177.101 25.9193 176.76 26.0967 176.49 26.442C176.219 26.7873 176.084 27.2073 176.084 27.702V31.86C176.084 31.9533 176.037 32 175.944 32H175.23C175.136 32 175.09 31.9533 175.09 31.86V25.056C175.09 24.9627 175.136 24.916 175.23 24.916H175.944C176.037 24.916 176.084 24.9627 176.084 25.056V25.966C176.084 25.994 176.088 26.008 176.098 26.008C176.116 26.008 176.13 25.9987 176.14 25.98C176.298 25.6253 176.508 25.35 176.77 25.154C177.04 24.9487 177.358 24.846 177.722 24.846Z" fill="white"/>
<path d="M181.938 24.804C182.684 24.804 183.268 25.0187 183.688 25.448C184.117 25.8773 184.332 26.4467 184.332 27.156V31.86C184.332 31.9533 184.285 32 184.192 32H183.478C183.384 32 183.338 31.9533 183.338 31.86V31.356C183.338 31.3373 183.328 31.3233 183.31 31.314C183.3 31.3047 183.286 31.3093 183.268 31.328C183.062 31.5893 182.801 31.7853 182.484 31.916C182.166 32.0467 181.812 32.112 181.42 32.112C180.832 32.112 180.328 31.9533 179.908 31.636C179.497 31.3187 179.292 30.8007 179.292 30.082C179.292 29.3353 179.53 28.7707 180.006 28.388C180.491 27.996 181.149 27.8 181.98 27.8H183.282C183.319 27.8 183.338 27.7813 183.338 27.744V27.212C183.338 26.736 183.216 26.3627 182.974 26.092C182.74 25.812 182.39 25.672 181.924 25.672C181.56 25.672 181.256 25.7653 181.014 25.952C180.771 26.1293 180.626 26.3673 180.58 26.666C180.57 26.75 180.519 26.792 180.426 26.792L179.656 26.75C179.609 26.75 179.572 26.736 179.544 26.708C179.525 26.68 179.52 26.6473 179.53 26.61C179.595 26.0687 179.847 25.6347 180.286 25.308C180.734 24.972 181.284 24.804 181.938 24.804ZM181.616 31.244C182.082 31.244 182.484 31.118 182.82 30.866C183.165 30.6047 183.338 30.2453 183.338 29.788V28.654C183.338 28.6167 183.319 28.598 183.282 28.598H182.05C181.518 28.598 181.093 28.724 180.776 28.976C180.458 29.2187 180.3 29.5687 180.3 30.026C180.3 30.4367 180.421 30.7447 180.664 30.95C180.906 31.146 181.224 31.244 181.616 31.244Z" fill="white"/>
<path d="M185.618 32C185.562 32 185.525 31.986 185.506 31.958C185.488 31.9207 185.492 31.8787 185.52 31.832L187.536 28.5C187.555 28.472 187.555 28.444 187.536 28.416L185.52 25.084C185.502 25.0467 185.492 25.0187 185.492 25C185.492 24.944 185.534 24.916 185.618 24.916H186.402C186.468 24.916 186.524 24.9487 186.57 25.014L188.096 27.576C188.106 27.5853 188.12 27.59 188.138 27.59C188.157 27.59 188.171 27.5853 188.18 27.576L189.692 25.014C189.739 24.9487 189.795 24.916 189.86 24.916H190.658C190.714 24.916 190.752 24.9347 190.77 24.972C190.789 25 190.784 25.0373 190.756 25.084L188.74 28.416C188.731 28.444 188.731 28.472 188.74 28.5L190.756 31.832C190.775 31.8693 190.784 31.8973 190.784 31.916C190.784 31.972 190.742 32 190.658 32H189.888C189.823 32 189.767 31.9673 189.72 31.902L188.194 29.326C188.185 29.3073 188.171 29.298 188.152 29.298C188.134 29.298 188.12 29.3073 188.11 29.326L186.584 31.902C186.538 31.9673 186.482 32 186.416 32H185.618Z" fill="white"/>
<path d="M192.741 23.628C192.508 23.628 192.317 23.5533 192.167 23.404C192.027 23.2547 191.957 23.068 191.957 22.844C191.957 22.6107 192.027 22.424 192.167 22.284C192.317 22.1347 192.508 22.06 192.741 22.06C192.965 22.06 193.152 22.1347 193.301 22.284C193.451 22.424 193.525 22.6107 193.525 22.844C193.525 23.068 193.451 23.2547 193.301 23.404C193.152 23.5533 192.965 23.628 192.741 23.628ZM192.363 32C192.27 32 192.223 31.9533 192.223 31.86V25.056C192.223 24.9627 192.27 24.916 192.363 24.916H193.077C193.171 24.916 193.217 24.9627 193.217 25.056V31.86C193.217 31.9533 193.171 32 193.077 32H192.363Z" fill="white"/>
<path d="M197.437 32.07C196.719 32.07 196.14 31.8973 195.701 31.552C195.263 31.2067 195.043 30.7633 195.043 30.222V30.096C195.043 30.0027 195.09 29.956 195.183 29.956H195.869C195.963 29.956 196.009 30.0027 196.009 30.096V30.194C196.009 30.4927 196.14 30.754 196.401 30.978C196.672 31.1927 197.017 31.3 197.437 31.3C197.848 31.3 198.179 31.1927 198.431 30.978C198.683 30.7633 198.809 30.4927 198.809 30.166C198.809 29.9327 198.739 29.7367 198.599 29.578C198.459 29.4193 198.287 29.2933 198.081 29.2C197.876 29.1067 197.591 28.9993 197.227 28.878C196.789 28.7287 196.425 28.5793 196.135 28.43C195.846 28.2807 195.599 28.0753 195.393 27.814C195.197 27.5433 195.099 27.2027 195.099 26.792C195.099 26.1947 195.309 25.7233 195.729 25.378C196.149 25.0233 196.705 24.846 197.395 24.846C198.105 24.846 198.669 25.028 199.089 25.392C199.519 25.756 199.733 26.2227 199.733 26.792V26.82C199.733 26.9133 199.687 26.96 199.593 26.96H198.949C198.856 26.96 198.809 26.9133 198.809 26.82V26.764C198.809 26.4467 198.679 26.1853 198.417 25.98C198.165 25.7653 197.825 25.658 197.395 25.658C196.994 25.658 196.667 25.7607 196.415 25.966C196.173 26.162 196.051 26.4187 196.051 26.736C196.051 27.0627 196.173 27.31 196.415 27.478C196.667 27.646 197.059 27.8233 197.591 28.01C198.049 28.1593 198.427 28.3087 198.725 28.458C199.024 28.6073 199.276 28.8173 199.481 29.088C199.696 29.3493 199.803 29.69 199.803 30.11C199.803 30.7073 199.589 31.1833 199.159 31.538C198.73 31.8927 198.156 32.07 197.437 32.07Z" fill="white"/>
<path d="M91.0401 49C90.9868 49 90.9388 48.984 90.8961 48.952C90.8641 48.9093 90.8481 48.8613 90.8481 48.808V37.992C90.8481 37.9387 90.8641 37.896 90.8961 37.864C90.9388 37.8213 90.9868 37.8 91.0401 37.8H94.4801C95.1948 37.8 95.8241 37.9333 96.3681 38.2C96.9228 38.4667 97.3495 38.8453 97.6481 39.336C97.9468 39.8267 98.0961 40.3973 98.0961 41.048V45.752C98.0961 46.4027 97.9468 46.9733 97.6481 47.464C97.3495 47.9547 96.9228 48.3333 96.3681 48.6C95.8241 48.8667 95.1948 49 94.4801 49H91.0401ZM93.1041 46.984C93.1041 47.0373 93.1308 47.064 93.1841 47.064L94.4961 47.048C94.8908 47.048 95.2108 46.9093 95.4561 46.632C95.7015 46.344 95.8295 45.9653 95.8401 45.496V41.304C95.8401 40.824 95.7175 40.4453 95.4721 40.168C95.2268 39.88 94.9015 39.736 94.4961 39.736H93.1841C93.1308 39.736 93.1041 39.7627 93.1041 39.816V46.984Z" fill="white"/>
<path d="M103.374 40.664C103.662 40.664 103.923 40.728 104.158 40.856C104.243 40.9093 104.275 40.9947 104.254 41.112L103.934 42.952C103.923 43.08 103.849 43.1173 103.71 43.064C103.539 43.0213 103.385 43 103.246 43C103.118 43 102.979 43.016 102.83 43.048C102.521 43.0907 102.259 43.24 102.046 43.496C101.833 43.752 101.726 44.0613 101.726 44.424V48.808C101.726 48.8613 101.705 48.9093 101.662 48.952C101.63 48.984 101.587 49 101.534 49H99.6621C99.6088 49 99.5608 48.984 99.5181 48.952C99.4861 48.9093 99.4701 48.8613 99.4701 48.808V40.968C99.4701 40.9147 99.4861 40.872 99.5181 40.84C99.5608 40.7973 99.6088 40.776 99.6621 40.776H101.534C101.587 40.776 101.63 40.7973 101.662 40.84C101.705 40.872 101.726 40.9147 101.726 40.968V41.608C101.726 41.6507 101.731 41.6773 101.742 41.688C101.763 41.688 101.785 41.672 101.806 41.64C102.179 40.9893 102.702 40.664 103.374 40.664Z" fill="white"/>
<path d="M106.03 49.064C105.667 49.064 105.363 48.9467 105.118 48.712C104.883 48.4667 104.766 48.1627 104.766 47.8C104.766 47.4267 104.883 47.1227 105.118 46.888C105.353 46.6533 105.657 46.536 106.03 46.536C106.403 46.536 106.707 46.6533 106.942 46.888C107.177 47.1227 107.294 47.4267 107.294 47.8C107.294 48.1627 107.171 48.4667 106.926 48.712C106.691 48.9467 106.393 49.064 106.03 49.064Z" fill="white"/>
<path d="M120.274 40.648C121.053 40.648 121.645 40.8987 122.05 41.4C122.466 41.8907 122.674 42.584 122.674 43.48V48.808C122.674 48.8613 122.653 48.9093 122.61 48.952C122.578 48.984 122.535 49 122.482 49H120.626C120.573 49 120.525 48.984 120.482 48.952C120.45 48.9093 120.434 48.8613 120.434 48.808V43.8C120.434 43.4267 120.343 43.1333 120.162 42.92C119.991 42.696 119.757 42.584 119.458 42.584C119.149 42.584 118.903 42.696 118.722 42.92C118.541 43.1333 118.45 43.4213 118.45 43.784V48.808C118.45 48.8613 118.429 48.9093 118.386 48.952C118.354 48.984 118.311 49 118.258 49H116.402C116.349 49 116.301 48.984 116.258 48.952C116.226 48.9093 116.21 48.8613 116.21 48.808V43.8C116.21 43.4267 116.119 43.1333 115.938 42.92C115.757 42.696 115.517 42.584 115.218 42.584C114.909 42.584 114.663 42.696 114.482 42.92C114.301 43.1333 114.21 43.4213 114.21 43.784V48.808C114.21 48.8613 114.189 48.9093 114.146 48.952C114.114 48.984 114.071 49 114.018 49H112.162C112.109 49 112.061 48.984 112.018 48.952C111.986 48.9093 111.97 48.8613 111.97 48.808V40.968C111.97 40.9147 111.986 40.872 112.018 40.84C112.061 40.7973 112.109 40.776 112.162 40.776H114.018C114.071 40.776 114.114 40.7973 114.146 40.84C114.189 40.872 114.21 40.9147 114.21 40.968V41.384C114.21 41.416 114.221 41.4373 114.242 41.448C114.263 41.4587 114.285 41.448 114.306 41.416C114.53 41.1493 114.791 40.9573 115.09 40.84C115.389 40.712 115.709 40.648 116.05 40.648C116.53 40.648 116.941 40.7493 117.282 40.952C117.634 41.144 117.906 41.4267 118.098 41.8C118.109 41.8213 118.125 41.832 118.146 41.832C118.167 41.8213 118.189 41.8 118.21 41.768C118.445 41.3733 118.743 41.0907 119.106 40.92C119.469 40.7387 119.858 40.648 120.274 40.648Z" fill="white"/>
<path d="M130.641 43.64C130.673 43.992 130.689 44.3813 130.689 44.808L130.673 45.432C130.673 45.56 130.609 45.624 130.481 45.624H126.241C126.187 45.624 126.161 45.6507 126.161 45.704C126.182 45.9493 126.203 46.1307 126.225 46.248C126.278 46.5467 126.406 46.7813 126.609 46.952C126.822 47.1227 127.083 47.208 127.393 47.208C127.915 47.1973 128.278 46.9573 128.481 46.488C128.534 46.3813 128.614 46.3387 128.721 46.36L130.417 46.696C130.545 46.728 130.587 46.808 130.545 46.936C130.31 47.64 129.921 48.184 129.377 48.568C128.843 48.9413 128.182 49.128 127.393 49.128C126.443 49.128 125.686 48.9147 125.121 48.488C124.566 48.0507 124.203 47.4267 124.033 46.616C123.937 46.1787 123.889 45.512 123.889 44.616C123.889 44.104 123.921 43.672 123.985 43.32C124.102 42.5093 124.454 41.864 125.041 41.384C125.627 40.8933 126.369 40.648 127.265 40.648C128.235 40.648 129.025 40.9253 129.633 41.48C130.241 42.024 130.577 42.744 130.641 43.64ZM127.281 42.584C126.993 42.584 126.753 42.6693 126.561 42.84C126.379 43.0107 126.262 43.2453 126.209 43.544C126.177 43.736 126.161 43.9387 126.161 44.152C126.161 44.2053 126.187 44.232 126.241 44.232H128.321C128.374 44.232 128.401 44.2053 128.401 44.152C128.401 43.9387 128.385 43.736 128.353 43.544C128.31 43.256 128.193 43.0267 128.001 42.856C127.809 42.6747 127.569 42.584 127.281 42.584Z" fill="white"/>
<path d="M136.292 37.992C136.292 37.9387 136.308 37.896 136.34 37.864C136.382 37.8213 136.43 37.8 136.484 37.8H138.356C138.409 37.8 138.452 37.8213 138.484 37.864C138.526 37.896 138.548 37.9387 138.548 37.992V48.808C138.548 48.8613 138.526 48.9093 138.484 48.952C138.452 48.984 138.409 49 138.356 49H136.484C136.43 49 136.382 48.984 136.34 48.952C136.308 48.9093 136.292 48.8613 136.292 48.808V48.456C136.292 48.424 136.281 48.4027 136.26 48.392C136.238 48.3813 136.217 48.392 136.196 48.424C135.801 48.8933 135.236 49.128 134.5 49.128C133.198 49.128 132.361 48.28 131.988 46.584C131.881 46.0507 131.828 45.4587 131.828 44.808C131.828 44.232 131.876 43.672 131.972 43.128C132.302 41.4747 133.156 40.648 134.532 40.648C134.905 40.648 135.225 40.7013 135.492 40.808C135.758 40.904 135.993 41.0747 136.196 41.32C136.217 41.352 136.238 41.3627 136.26 41.352C136.281 41.3413 136.292 41.32 136.292 41.288V37.992ZM136.164 46.264C136.238 45.9547 136.276 45.4907 136.276 44.872C136.276 44.3067 136.233 43.8373 136.148 43.464C136.009 42.8773 135.694 42.584 135.204 42.584C134.958 42.584 134.756 42.6587 134.596 42.808C134.436 42.9573 134.318 43.1707 134.244 43.448C134.148 43.7573 134.1 44.232 134.1 44.872C134.1 45.48 134.137 45.9387 134.212 46.248C134.35 46.8773 134.681 47.192 135.204 47.192C135.684 47.192 136.004 46.8827 136.164 46.264Z" fill="white"/>
<path d="M141.202 49.064C140.839 49.064 140.535 48.9467 140.29 48.712C140.055 48.4667 139.938 48.1627 139.938 47.8C139.938 47.4267 140.055 47.1227 140.29 46.888C140.524 46.6533 140.828 46.536 141.202 46.536C141.575 46.536 141.879 46.6533 142.114 46.888C142.348 47.1227 142.466 47.4267 142.466 47.8C142.466 48.1627 142.343 48.4667 142.098 48.712C141.863 48.9467 141.564 49.064 141.202 49.064Z" fill="white"/>
<path d="M154.086 39.544C154.086 39.5973 154.065 39.6453 154.022 39.688C153.99 39.72 153.947 39.736 153.894 39.736H149.606C149.553 39.736 149.526 39.7627 149.526 39.816V42.312C149.526 42.3653 149.553 42.392 149.606 42.392H152.278C152.331 42.392 152.374 42.4133 152.406 42.456C152.449 42.488 152.47 42.5307 152.47 42.584V44.136C152.47 44.1893 152.449 44.2373 152.406 44.28C152.374 44.312 152.331 44.328 152.278 44.328H149.606C149.553 44.328 149.526 44.3547 149.526 44.408V46.984C149.526 47.0373 149.553 47.064 149.606 47.064H153.894C153.947 47.064 153.99 47.0853 154.022 47.128C154.065 47.16 154.086 47.2027 154.086 47.256V48.808C154.086 48.8613 154.065 48.9093 154.022 48.952C153.99 48.984 153.947 49 153.894 49H147.462C147.409 49 147.361 48.984 147.318 48.952C147.286 48.9093 147.27 48.8613 147.27 48.808V37.992C147.27 37.9387 147.286 37.896 147.318 37.864C147.361 37.8213 147.409 37.8 147.462 37.8H153.894C153.947 37.8 153.99 37.8213 154.022 37.864C154.065 37.896 154.086 37.9387 154.086 37.992V39.544Z" fill="white"/>
<path d="M163.618 40.648C164.397 40.648 164.989 40.8987 165.394 41.4C165.81 41.8907 166.018 42.584 166.018 43.48V48.808C166.018 48.8613 165.997 48.9093 165.954 48.952C165.922 48.984 165.879 49 165.826 49H163.97C163.917 49 163.869 48.984 163.826 48.952C163.794 48.9093 163.778 48.8613 163.778 48.808V43.8C163.778 43.4267 163.687 43.1333 163.506 42.92C163.335 42.696 163.101 42.584 162.802 42.584C162.493 42.584 162.247 42.696 162.066 42.92C161.885 43.1333 161.794 43.4213 161.794 43.784V48.808C161.794 48.8613 161.773 48.9093 161.73 48.952C161.698 48.984 161.655 49 161.602 49H159.746C159.693 49 159.645 48.984 159.602 48.952C159.57 48.9093 159.554 48.8613 159.554 48.808V43.8C159.554 43.4267 159.463 43.1333 159.282 42.92C159.101 42.696 158.861 42.584 158.562 42.584C158.253 42.584 158.007 42.696 157.826 42.92C157.645 43.1333 157.554 43.4213 157.554 43.784V48.808C157.554 48.8613 157.533 48.9093 157.49 48.952C157.458 48.984 157.415 49 157.362 49H155.506C155.453 49 155.405 48.984 155.362 48.952C155.33 48.9093 155.314 48.8613 155.314 48.808V40.968C155.314 40.9147 155.33 40.872 155.362 40.84C155.405 40.7973 155.453 40.776 155.506 40.776H157.362C157.415 40.776 157.458 40.7973 157.49 40.84C157.533 40.872 157.554 40.9147 157.554 40.968V41.384C157.554 41.416 157.565 41.4373 157.586 41.448C157.607 41.4587 157.629 41.448 157.65 41.416C157.874 41.1493 158.135 40.9573 158.434 40.84C158.733 40.712 159.053 40.648 159.394 40.648C159.874 40.648 160.285 40.7493 160.626 40.952C160.978 41.144 161.25 41.4267 161.442 41.8C161.453 41.8213 161.469 41.832 161.49 41.832C161.511 41.8213 161.533 41.8 161.554 41.768C161.789 41.3733 162.087 41.0907 162.45 40.92C162.813 40.7387 163.202 40.648 163.618 40.648Z" fill="white"/>
<path d="M168.56 39.848C168.197 39.848 167.899 39.7307 167.664 39.496C167.429 39.2507 167.312 38.9467 167.312 38.584C167.312 38.2107 167.424 37.9067 167.648 37.672C167.883 37.4373 168.187 37.32 168.56 37.32C168.933 37.32 169.237 37.4373 169.472 37.672C169.707 37.9067 169.824 38.2107 169.824 38.584C169.824 38.9467 169.701 39.2507 169.456 39.496C169.221 39.7307 168.923 39.848 168.56 39.848ZM167.632 49C167.579 49 167.531 48.984 167.488 48.952C167.456 48.9093 167.44 48.8613 167.44 48.808V40.968C167.44 40.9147 167.456 40.872 167.488 40.84C167.531 40.7973 167.579 40.776 167.632 40.776H169.504C169.557 40.776 169.6 40.7973 169.632 40.84C169.675 40.872 169.696 40.9147 169.696 40.968V48.808C169.696 48.8613 169.675 48.9093 169.632 48.952C169.6 48.984 169.557 49 169.504 49H167.632Z" fill="white"/>
<path d="M171.349 49C171.296 49 171.248 48.984 171.205 48.952C171.173 48.9093 171.157 48.8613 171.157 48.808V37.992C171.157 37.9387 171.173 37.896 171.205 37.864C171.248 37.8213 171.296 37.8 171.349 37.8H173.221C173.274 37.8 173.317 37.8213 173.349 37.864C173.392 37.896 173.413 37.9387 173.413 37.992V48.808C173.413 48.8613 173.392 48.9093 173.349 48.952C173.317 48.984 173.274 49 173.221 49H171.349Z" fill="white"/>
<path d="M174.798 52.184C174.766 52.184 174.739 52.1627 174.718 52.12C174.697 52.088 174.686 52.0453 174.686 51.992V50.52C174.686 50.392 174.745 50.328 174.862 50.328C175.47 50.3173 175.902 50.2267 176.158 50.056C176.425 49.896 176.595 49.56 176.67 49.048L176.654 48.952L174.35 40.984L174.334 40.92C174.334 40.8133 174.393 40.76 174.51 40.76H176.526C176.643 40.76 176.713 40.8187 176.734 40.936L177.774 45.912C177.785 45.9547 177.801 45.976 177.822 45.976C177.843 45.976 177.859 45.9547 177.87 45.912L178.91 40.936C178.931 40.8187 179.001 40.76 179.118 40.76L181.102 40.776C181.166 40.776 181.209 40.7973 181.23 40.84C181.262 40.872 181.273 40.92 181.262 40.984L178.814 49.304C178.579 50.0827 178.329 50.664 178.062 51.048C177.806 51.4427 177.438 51.7307 176.958 51.912C176.478 52.0933 175.79 52.184 174.894 52.184H174.798Z" fill="white"/>
<path d="M189.039 49.128C188.314 49.128 187.674 48.984 187.119 48.696C186.564 48.408 186.132 48.0027 185.823 47.48C185.524 46.9467 185.375 46.3333 185.375 45.64V41.144C185.375 40.4507 185.524 39.8427 185.823 39.32C186.132 38.7973 186.564 38.392 187.119 38.104C187.674 37.816 188.314 37.672 189.039 37.672C189.754 37.672 190.388 37.816 190.943 38.104C191.508 38.3813 191.94 38.776 192.239 39.288C192.548 39.7893 192.703 40.36 192.703 41V41.352C192.703 41.4053 192.682 41.4533 192.639 41.496C192.607 41.528 192.564 41.544 192.511 41.544H190.639C190.586 41.544 190.538 41.528 190.495 41.496C190.463 41.4533 190.447 41.4053 190.447 41.352V41.016C190.447 40.6107 190.319 40.2747 190.063 40.008C189.807 39.7413 189.466 39.608 189.039 39.608C188.612 39.608 188.266 39.7467 187.999 40.024C187.743 40.3013 187.615 40.664 187.615 41.112V45.688C187.615 46.136 187.748 46.4987 188.015 46.776C188.292 47.0533 188.65 47.192 189.087 47.192C189.503 47.192 189.834 47.0693 190.079 46.824C190.335 46.5787 190.463 46.2427 190.463 45.816V44.824C190.463 44.7707 190.436 44.744 190.383 44.744H189.135C189.082 44.744 189.034 44.728 188.991 44.696C188.959 44.6533 188.943 44.6053 188.943 44.552V43.096C188.943 43.0427 188.959 43 188.991 42.968C189.034 42.9253 189.082 42.904 189.135 42.904H192.511C192.564 42.904 192.607 42.9253 192.639 42.968C192.682 43 192.703 43.0427 192.703 43.096V45.64C192.703 46.7067 192.367 47.5547 191.695 48.184C191.034 48.8133 190.148 49.128 189.039 49.128Z" fill="white"/>
<path d="M198.32 40.968C198.32 40.9147 198.336 40.872 198.368 40.84C198.41 40.7973 198.458 40.776 198.512 40.776H200.384C200.437 40.776 200.48 40.7973 200.512 40.84C200.554 40.872 200.576 40.9147 200.576 40.968V48.808C200.576 48.8613 200.554 48.9093 200.512 48.952C200.48 48.984 200.437 49 200.384 49H198.512C198.458 49 198.41 48.984 198.368 48.952C198.336 48.9093 198.32 48.8613 198.32 48.808V48.408C198.32 48.376 198.309 48.36 198.288 48.36C198.266 48.3493 198.245 48.3547 198.224 48.376C197.861 48.8667 197.29 49.112 196.512 49.112C195.786 49.112 195.189 48.8933 194.72 48.456C194.25 48.0187 194.016 47.3733 194.016 46.52V40.968C194.016 40.9147 194.032 40.872 194.064 40.84C194.106 40.7973 194.154 40.776 194.208 40.776H196.08C196.133 40.776 196.176 40.7973 196.208 40.84C196.25 40.872 196.272 40.9147 196.272 40.968V45.992C196.272 46.3653 196.357 46.6587 196.528 46.872C196.709 47.0853 196.96 47.192 197.28 47.192C197.6 47.192 197.85 47.08 198.032 46.856C198.224 46.632 198.32 46.3333 198.32 45.96V40.968ZM198.832 39.8C198.469 39.8 198.165 39.6827 197.92 39.448C197.685 39.2027 197.568 38.8987 197.568 38.536C197.568 38.1627 197.685 37.8587 197.92 37.624C198.154 37.3893 198.458 37.272 198.832 37.272C199.205 37.272 199.509 37.3893 199.744 37.624C199.978 37.8587 200.096 38.1627 200.096 38.536C200.096 38.8987 199.973 39.2027 199.728 39.448C199.493 39.6827 199.194 39.8 198.832 39.8ZM195.76 39.8C195.397 39.8 195.093 39.6827 194.848 39.448C194.613 39.2027 194.496 38.8987 194.496 38.536C194.496 38.1627 194.613 37.8587 194.848 37.624C195.082 37.3893 195.386 37.272 195.76 37.272C196.133 37.272 196.437 37.3893 196.672 37.624C196.906 37.8587 197.024 38.1627 197.024 38.536C197.024 38.8987 196.901 39.2027 196.656 39.448C196.421 39.6827 196.122 39.8 195.76 39.8Z" fill="white"/>
<path d="M206.097 40.648C206.875 40.648 207.483 40.8987 207.921 41.4C208.369 41.8907 208.593 42.5787 208.593 43.464V48.808C208.593 48.8613 208.571 48.9093 208.529 48.952C208.497 48.984 208.454 49 208.401 49H206.529C206.475 49 206.427 48.984 206.385 48.952C206.353 48.9093 206.337 48.8613 206.337 48.808V43.784C206.337 43.4107 206.246 43.1173 206.065 42.904C205.883 42.6907 205.638 42.584 205.329 42.584C205.009 42.584 204.753 42.696 204.561 42.92C204.379 43.1333 204.289 43.4267 204.289 43.8V48.808C204.289 48.8613 204.267 48.9093 204.225 48.952C204.193 48.984 204.15 49 204.097 49H202.225C202.171 49 202.123 48.984 202.081 48.952C202.049 48.9093 202.033 48.8613 202.033 48.808V40.968C202.033 40.9147 202.049 40.872 202.081 40.84C202.123 40.7973 202.171 40.776 202.225 40.776H204.097C204.15 40.776 204.193 40.7973 204.225 40.84C204.267 40.872 204.289 40.9147 204.289 40.968V41.416C204.289 41.448 204.299 41.4693 204.321 41.48C204.342 41.48 204.369 41.4587 204.401 41.416C204.785 40.904 205.35 40.648 206.097 40.648Z" fill="white"/>
<path d="M214.226 42.28C214.226 42.3333 214.204 42.3813 214.162 42.424C214.13 42.456 214.087 42.472 214.034 42.472H212.802C212.748 42.472 212.722 42.4987 212.722 42.552V46.152C212.722 46.4827 212.786 46.7227 212.914 46.872C213.052 47.0107 213.26 47.0747 213.538 47.064H213.858C213.911 47.064 213.954 47.0853 213.986 47.128C214.028 47.16 214.05 47.2027 214.05 47.256V48.808C214.05 48.936 213.986 49 213.858 49C213.676 49.0107 213.41 49.016 213.058 49.016C212.215 49.016 211.586 48.8773 211.17 48.6C210.764 48.3227 210.562 47.8 210.562 47.032V42.552C210.562 42.4987 210.535 42.472 210.482 42.472H209.746C209.692 42.472 209.644 42.456 209.602 42.424C209.57 42.3813 209.554 42.3333 209.554 42.28V40.968C209.554 40.9147 209.57 40.872 209.602 40.84C209.644 40.7973 209.692 40.776 209.746 40.776H210.482C210.535 40.776 210.562 40.7493 210.562 40.696V38.856C210.562 38.8027 210.578 38.76 210.61 38.728C210.652 38.6853 210.7 38.664 210.754 38.664H212.53C212.583 38.664 212.626 38.6853 212.658 38.728C212.7 38.76 212.722 38.8027 212.722 38.856V40.696C212.722 40.7493 212.748 40.776 212.802 40.776H214.034C214.087 40.776 214.13 40.7973 214.162 40.84C214.204 40.872 214.226 40.9147 214.226 40.968V42.28Z" fill="white"/>
<path d="M219.409 40.648C220.188 40.648 220.796 40.8987 221.233 41.4C221.681 41.8907 221.905 42.5787 221.905 43.464V48.808C221.905 48.8613 221.884 48.9093 221.841 48.952C221.809 48.984 221.766 49 221.713 49H219.841C219.788 49 219.74 48.984 219.697 48.952C219.665 48.9093 219.649 48.8613 219.649 48.808V43.784C219.649 43.4107 219.558 43.1173 219.377 42.904C219.196 42.6907 218.95 42.584 218.641 42.584C218.321 42.584 218.065 42.696 217.873 42.92C217.692 43.1333 217.601 43.4267 217.601 43.8V48.808C217.601 48.8613 217.58 48.9093 217.537 48.952C217.505 48.984 217.462 49 217.409 49H215.537C215.484 49 215.436 48.984 215.393 48.952C215.361 48.9093 215.345 48.8613 215.345 48.808V37.992C215.345 37.9387 215.361 37.896 215.393 37.864C215.436 37.8213 215.484 37.8 215.537 37.8H217.409C217.462 37.8 217.505 37.8213 217.537 37.864C217.58 37.896 217.601 37.9387 217.601 37.992V41.416C217.601 41.448 217.612 41.4693 217.633 41.48C217.654 41.48 217.681 41.4587 217.713 41.416C218.097 40.904 218.662 40.648 219.409 40.648Z" fill="white"/>
<path d="M229.891 43.64C229.923 43.992 229.939 44.3813 229.939 44.808L229.923 45.432C229.923 45.56 229.859 45.624 229.731 45.624H225.491C225.437 45.624 225.411 45.6507 225.411 45.704C225.432 45.9493 225.453 46.1307 225.475 46.248C225.528 46.5467 225.656 46.7813 225.859 46.952C226.072 47.1227 226.333 47.208 226.643 47.208C227.165 47.1973 227.528 46.9573 227.731 46.488C227.784 46.3813 227.864 46.3387 227.971 46.36L229.667 46.696C229.795 46.728 229.837 46.808 229.795 46.936C229.56 47.64 229.171 48.184 228.627 48.568C228.093 48.9413 227.432 49.128 226.643 49.128C225.693 49.128 224.936 48.9147 224.371 48.488C223.816 48.0507 223.453 47.4267 223.283 46.616C223.187 46.1787 223.139 45.512 223.139 44.616C223.139 44.104 223.171 43.672 223.235 43.32C223.352 42.5093 223.704 41.864 224.291 41.384C224.877 40.8933 225.619 40.648 226.515 40.648C227.485 40.648 228.275 40.9253 228.883 41.48C229.491 42.024 229.827 42.744 229.891 43.64ZM226.531 42.584C226.243 42.584 226.003 42.6693 225.811 42.84C225.629 43.0107 225.512 43.2453 225.459 43.544C225.427 43.736 225.411 43.9387 225.411 44.152C225.411 44.2053 225.437 44.232 225.491 44.232H227.571C227.624 44.232 227.651 44.2053 227.651 44.152C227.651 43.9387 227.635 43.736 227.603 43.544C227.56 43.256 227.443 43.0267 227.251 42.856C227.059 42.6747 226.819 42.584 226.531 42.584Z" fill="white"/>
<path d="M235.062 40.664C235.35 40.664 235.611 40.728 235.846 40.856C235.931 40.9093 235.963 40.9947 235.942 41.112L235.622 42.952C235.611 43.08 235.536 43.1173 235.398 43.064C235.227 43.0213 235.072 43 234.934 43C234.806 43 234.667 43.016 234.518 43.048C234.208 43.0907 233.947 43.24 233.734 43.496C233.52 43.752 233.414 44.0613 233.414 44.424V48.808C233.414 48.8613 233.392 48.9093 233.35 48.952C233.318 48.984 233.275 49 233.222 49H231.35C231.296 49 231.248 48.984 231.206 48.952C231.174 48.9093 231.158 48.8613 231.158 48.808V40.968C231.158 40.9147 231.174 40.872 231.206 40.84C231.248 40.7973 231.296 40.776 231.35 40.776H233.222C233.275 40.776 233.318 40.7973 233.35 40.84C233.392 40.872 233.414 40.9147 233.414 40.968V41.608C233.414 41.6507 233.419 41.6773 233.43 41.688C233.451 41.688 233.472 41.672 233.494 41.64C233.867 40.9893 234.39 40.664 235.062 40.664Z" fill="white"/>
<path d="M58.9545 13.1724C59.73 12.2978 59.6152 10.9525 58.8487 10.1167C56.8435 7.93039 51.8357 5.05145 49.0692 3.9009C25.327 -5.97292 -1.03982 11.3833 0.984724 37.4693C1.92409 49.5668 9.6429 60.6982 20.6288 65.7596C22.1373 61.2129 24.7889 56.8803 28.7773 54.1251C32.589 51.4926 37.2097 50.4026 40.7401 47.3766C40.7775 47.2077 39.6201 46.5434 39.4046 46.3847C37.3852 44.9001 35.8549 43.3433 34.3452 41.3427C33.2239 39.8568 32.5477 38.3386 30.829 37.3764C25.8225 34.5749 22.1114 40.227 19.843 43.885C17.674 47.3857 15.8778 51.1185 13.9888 54.7739C13.9023 54.8358 13.2868 54.1754 13.1926 54.0723C9.33193 49.8493 6.11124 42.1669 5.84543 36.4477C4.76671 13.1749 29.7167 -1.43135 49.8821 9.72845C51.8331 10.8081 53.4112 12.2836 55.2151 13.3749C56.3067 14.0353 58.0255 14.2197 58.9545 13.1724ZM42.4872 29.7792C42.4872 25.9651 39.3943 22.8733 35.5787 22.8733C31.7632 22.8733 28.6702 25.9651 28.6702 29.7792C28.6702 33.5933 31.7632 36.6851 35.5787 36.6851C39.3943 36.6851 42.4872 33.5933 42.4872 29.7792ZM68.3133 27.5877C67.9482 25.947 67.4604 24.2328 66.7056 22.7431L50.0537 22.7443C49.7879 22.7443 50.0937 23.4357 50.1492 23.584C51.1815 26.3198 54.397 27.789 57.1648 27.9798C58.099 28.0443 62.8823 27.7812 63.2991 28.3217C64.3146 31.7849 64.1055 35.9692 63.3417 39.4866C61.2087 49.3075 52.7351 55.7349 43.1775 57.5316C44.9517 55.4653 46.7621 53.4712 48.3053 51.2023C49.4137 49.5732 51.5815 46.1719 50.868 44.1868C50.4576 43.0466 49.1699 42.7564 48.1299 43.2646C47.0898 43.7728 45.224 46.3731 44.2562 47.3444C40.9117 50.7006 37.7026 51.8692 33.6006 53.8981C28.3825 56.4791 25.4741 59.4729 23.2999 64.9225C23.1966 65.1805 22.594 66.6909 22.6882 66.7889C23.9876 67.0237 25.2031 67.5718 26.4844 67.9046C50.7815 74.2236 73.7779 52.113 68.3133 27.5877Z" fill="url(#paint0_linear_78_130)"/>
<path d="M58.9545 13.1724C59.73 12.2978 59.6152 10.9525 58.8487 10.1167C56.8435 7.93039 51.8357 5.05145 49.0692 3.9009C25.327 -5.97292 -1.03982 11.3833 0.984724 37.4693C1.92409 49.5668 9.6429 60.6982 20.6288 65.7596C22.1373 61.2129 24.7889 56.8803 28.7773 54.1251C32.589 51.4926 37.2097 50.4026 40.7401 47.3766C40.7775 47.2077 39.6201 46.5434 39.4046 46.3847C37.3852 44.9001 35.8549 43.3433 34.3452 41.3427C33.2239 39.8568 32.5477 38.3386 30.829 37.3764C25.8225 34.5749 22.1114 40.227 19.843 43.885C17.674 47.3857 15.8778 51.1185 13.9888 54.7739C13.9023 54.8358 13.2868 54.1754 13.1926 54.0723C9.33193 49.8493 6.11124 42.1669 5.84543 36.4477C4.76671 13.1749 29.7167 -1.43135 49.8821 9.72845C51.8331 10.8081 53.4112 12.2836 55.2151 13.3749C56.3067 14.0353 58.0255 14.2197 58.9545 13.1724ZM42.4872 29.7792C42.4872 25.9651 39.3943 22.8733 35.5787 22.8733C31.7632 22.8733 28.6702 25.9651 28.6702 29.7792C28.6702 33.5933 31.7632 36.6851 35.5787 36.6851C39.3943 36.6851 42.4872 33.5933 42.4872 29.7792ZM68.3133 27.5877C67.9482 25.947 67.4604 24.2328 66.7056 22.7431L50.0537 22.7443C49.7879 22.7443 50.0937 23.4357 50.1492 23.584C51.1815 26.3198 54.397 27.789 57.1648 27.9798C58.099 28.0443 62.8823 27.7812 63.2991 28.3217C64.3146 31.7849 64.1055 35.9692 63.3417 39.4866C61.2087 49.3075 52.7351 55.7349 43.1775 57.5316C44.9517 55.4653 46.7621 53.4712 48.3053 51.2023C49.4137 49.5732 51.5815 46.1719 50.868 44.1868C50.4576 43.0466 49.1699 42.7564 48.1299 43.2646C47.0898 43.7728 45.224 46.3731 44.2562 47.3444C40.9117 50.7006 37.7026 51.8692 33.6006 53.8981C28.3825 56.4791 25.4741 59.4729 23.2999 64.9225C23.1966 65.1805 22.594 66.6909 22.6882 66.7889C23.9876 67.0237 25.2031 67.5718 26.4844 67.9046C50.7815 74.2236 73.7779 52.113 68.3133 27.5877Z" fill="white"/>
<defs>
<linearGradient id="paint0_linear_78_130" x1="0.875045" y1="35.0457" x2="69.1262" y2="35.0457" gradientUnits="userSpaceOnUse">
<stop stop-color="#A2C01F"/>
<stop offset="0.08" stop-color="#87B524"/>
<stop offset="0.22" stop-color="#5EA52B"/>
<stop offset="0.37" stop-color="#3C9832"/>
<stop offset="0.52" stop-color="#218E37"/>
<stop offset="0.67" stop-color="#0E863B"/>
<stop offset="0.83" stop-color="#03823D"/>
<stop offset="1" stop-color="#00813E"/>
</linearGradient>
</defs>
</svg>
